# Blender 5.0.1
# www.blender.org
mtllib argus1.mtl
o arg
v 0.000000 0.140773 0.002615
v -0.025626 0.128740 -0.011720
v -0.029059 0.127853 0.000684
v 0.000000 0.140773 0.002615
v -0.022921 0.120552 0.018215
v 0.000000 0.118592 0.029514
v 0.000000 0.140773 0.002615
v 0.000000 0.128573 -0.025040
v -0.015794 0.128904 -0.021428
v 0.000000 0.140773 0.002615
v -0.015794 0.128904 -0.021428
v -0.025626 0.128740 -0.011720
v 0.000000 0.140773 0.002615
v -0.029059 0.127853 0.000684
v -0.022921 0.120552 0.018215
v 0.000000 0.140773 0.002615
v 0.029059 0.127853 0.000684
v 0.025626 0.128740 -0.011720
v 0.000000 0.140773 0.002615
v 0.000000 0.118592 0.029514
v 0.022921 0.120552 0.018215
v 0.000000 0.140773 0.002615
v 0.015794 0.128904 -0.021428
v 0.000000 0.128573 -0.025040
v 0.000000 0.140773 0.002615
v 0.025626 0.128740 -0.011720
v 0.015794 0.128904 -0.021428
v 0.000000 0.140773 0.002615
v 0.022921 0.120552 0.018215
v 0.029059 0.127853 0.000684
v 0.109124 0.182180 0.008017
v 0.095918 0.243490 0.027807
v 0.047243 0.176940 0.062074
v 0.029046 0.227277 0.054229
v 0.017547 0.166372 0.045968
v -0.005324 0.214236 0.036757
v -0.000177 0.221258 -0.042188
v -0.011559 0.232288 -0.049125
v 0.000713 0.228272 -0.052673
v -0.010260 0.223395 -0.037459
v -0.015372 0.241322 -0.038594
v -0.013438 0.229947 -0.023542
v -0.012049 0.248527 -0.029693
v -0.008580 0.233296 -0.017425
v 0.000000 0.233970 -0.015278
v 0.000319 0.251848 -0.025500
v 0.000000 0.270002 -0.060461
v -0.010916 0.257788 -0.033605
v 0.000000 0.259579 -0.030675
v -0.010427 0.267367 -0.060265
v -0.015957 0.254253 -0.041367
v -0.017237 0.260105 -0.059540
v -0.012144 0.235368 -0.053869
v -0.019769 0.247564 -0.074703
v -0.010427 0.267367 -0.060265
v -0.014067 0.250317 -0.083927
v 0.000000 0.270002 -0.060461
v 0.000000 0.251815 -0.087893
v 0.000000 0.219259 -0.097061
v -0.018579 0.216502 -0.088166
v 0.000000 0.160961 -0.089458
v -0.023404 0.212827 -0.074629
v -0.021414 0.160242 -0.082231
v 0.000000 0.115959 -0.079666
v -0.018600 0.211070 -0.058007
v 0.000000 0.228635 -0.052414
v 0.000000 0.211386 -0.051359
v 0.000000 0.159325 -0.037550
v -0.030727 0.160143 -0.063504
v -0.024310 0.113201 -0.072895
v 0.000000 0.071943 -0.093160
v -0.021414 0.160044 -0.044777
v -0.034377 0.106628 -0.055333
v -0.024310 0.100055 -0.037770
v 0.000000 0.097297 -0.030999
v -0.022940 0.065887 -0.086349
v -0.030543 0.053966 -0.074793
v -0.022940 0.042045 -0.063237
v 0.000000 0.035988 -0.056426
v 0.000000 0.018347 -0.125488
v -0.014358 0.020381 -0.129056
v 0.000000 0.014039 -0.204615
v -0.021742 0.027063 -0.140887
v 0.000000 0.014039 -0.204615
v -0.014358 0.033744 -0.152719
v 0.000000 0.014039 -0.204615
v 0.000000 0.035779 -0.156287
v 0.000000 0.014039 -0.204615
v 0.011559 0.232288 -0.049125
v 0.000177 0.221258 -0.042188
v -0.000713 0.228272 -0.052673
v 0.010260 0.223395 -0.037459
v 0.015372 0.241322 -0.038594
v 0.013438 0.229947 -0.023542
v 0.012049 0.248527 -0.029693
v 0.008580 0.233296 -0.017425
v 0.000000 0.233970 -0.015278
v -0.000319 0.251848 -0.025500
v 0.010916 0.257788 -0.033605
v 0.000000 0.270002 -0.060461
v 0.000000 0.259579 -0.030675
v 0.010427 0.267367 -0.060265
v 0.015957 0.254253 -0.041367
v 0.017237 0.260105 -0.059540
v 0.012144 0.235368 -0.053869
v 0.019769 0.247564 -0.074703
v 0.010427 0.267367 -0.060265
v 0.014067 0.250317 -0.083927
v 0.000000 0.270002 -0.060461
v 0.000000 0.251815 -0.087893
v 0.000000 0.219259 -0.097061
v 0.018579 0.216502 -0.088166
v 0.000000 0.160961 -0.089458
v 0.023404 0.212827 -0.074629
v 0.021414 0.160242 -0.082231
v 0.000000 0.115959 -0.079666
v 0.018600 0.211070 -0.058007
v 0.000000 0.228635 -0.052414
v 0.000000 0.211386 -0.051359
v 0.000000 0.159325 -0.037550
v 0.030727 0.160143 -0.063504
v 0.024310 0.113201 -0.072895
v 0.000000 0.071943 -0.093160
v 0.021414 0.160044 -0.044777
v 0.034377 0.106628 -0.055333
v 0.024310 0.100055 -0.037770
v 0.000000 0.097297 -0.030999
v 0.022940 0.065887 -0.086349
v 0.030543 0.053966 -0.074793
v 0.022940 0.042045 -0.063237
v 0.000000 0.035988 -0.056426
v 0.000000 0.018347 -0.125488
v 0.014358 0.020381 -0.129056
v 0.000000 0.014039 -0.204615
v 0.021742 0.027063 -0.140887
v 0.000000 0.014039 -0.204615
v 0.014358 0.033744 -0.152719
v 0.000000 0.014039 -0.204615
v 0.000000 0.035779 -0.156287
v 0.000000 0.014039 -0.204615
v -0.037772 0.183235 0.062337
v -0.013058 0.137039 0.050101
v -0.018913 0.189886 0.050432
v -0.026509 0.132346 0.056835
v -0.111355 0.155395 0.019213
v -0.098876 0.109351 0.046155
v -0.029046 0.227277 0.054229
v -0.017547 0.166372 0.045968
v 0.005324 0.214236 0.036757
v -0.047243 0.176940 0.062074
v -0.095918 0.243490 0.027807
v -0.109124 0.182180 0.008017
v 0.013058 0.137039 0.050101
v 0.037772 0.183235 0.062337
v 0.018913 0.189886 0.050432
v 0.026509 0.132346 0.056835
v 0.111355 0.155395 0.019213
v 0.098876 0.109351 0.046155
v -0.018955 0.086505 -0.002165
v -0.047295 0.063293 0.008358
v -0.044617 0.060469 -0.001520
v -0.019678 0.091919 0.009389
v -0.053861 0.070311 0.012545
v -0.021423 0.105064 0.014189
v -0.060492 0.077420 0.008559
v -0.023160 0.118224 0.009424
v -0.063276 0.080445 -0.001281
v -0.023879 0.123701 -0.002111
v -0.023153 0.118290 -0.013662
v -0.060574 0.077618 -0.011192
v -0.021413 0.105159 -0.018464
v -0.053976 0.070592 -0.015351
v -0.019672 0.091987 -0.013703
v -0.047374 0.063491 -0.011331
v -0.044617 0.060469 -0.001520
v -0.018955 0.086505 -0.002165
v 0.047295 0.063293 0.008358
v 0.018955 0.086505 -0.002165
v 0.044617 0.060469 -0.001520
v 0.019678 0.091919 0.009389
v 0.053861 0.070311 0.012545
v 0.021423 0.105064 0.014189
v 0.060492 0.077420 0.008559
v 0.023160 0.118224 0.009424
v 0.063276 0.080445 -0.001281
v 0.023879 0.123701 -0.002111
v 0.023153 0.118290 -0.013662
v 0.060574 0.077618 -0.011192
v 0.021413 0.105159 -0.018464
v 0.053976 0.070592 -0.015351
v 0.019672 0.091987 -0.013703
v 0.047374 0.063491 -0.011331
v 0.044617 0.060469 -0.001520
v 0.018955 0.086505 -0.002165
v -0.008527 0.218244 0.029307
v 0.017313 0.229072 0.055013
v 0.018593 0.224634 0.027454
v -0.009938 0.223186 0.053427
v 0.018325 0.202351 0.073613
v -0.009100 0.198234 0.071048
v 0.019337 0.166257 0.077403
v -0.008262 0.163909 0.073859
v 0.000000 0.219437 -0.034526
v -0.012144 0.235368 -0.053869
v 0.000000 0.228635 -0.052414
v -0.007734 0.221223 -0.031954
v -0.011057 0.228845 -0.026693
v -0.015957 0.254253 -0.041367
v -0.010916 0.257788 -0.033605
v -0.008125 0.231951 -0.020299
v 0.000000 0.233402 -0.017031
v 0.000000 0.259579 -0.030675
v 0.000000 0.219437 -0.034526
v 0.000000 0.228635 -0.052414
v 0.012144 0.235368 -0.053869
v 0.007734 0.221223 -0.031954
v 0.011057 0.228845 -0.026693
v 0.015957 0.254253 -0.041367
v 0.010916 0.257788 -0.033605
v 0.008125 0.231951 -0.020299
v 0.000000 0.233402 -0.017031
v 0.000000 0.259579 -0.030675
v -0.008828 0.137512 0.016474
v 0.000000 0.099617 0.032145
v 0.000000 0.137512 0.017933
v -0.016148 0.099215 0.029454
v 0.000000 0.058989 0.040612
v -0.016544 0.137512 0.009286
v -0.021459 0.057002 0.038471
v 0.000000 0.026708 0.035811
v -0.032193 0.097246 0.015378
v -0.015264 0.024679 0.032953
v 0.000000 0.014890 0.022696
v -0.017656 0.017415 0.026556
v -0.028761 0.023536 0.021998
v -0.017656 0.017415 0.026556
v -0.039989 0.054059 0.023291
v -0.044742 0.051449 0.001279
v -0.035331 0.096666 0.000985
v -0.019277 0.137512 0.000488
v -0.016711 0.137512 -0.008295
v -0.032022 0.097319 -0.012898
v -0.009633 0.137512 -0.015655
v -0.040541 0.054515 -0.018434
v 0.000000 0.099772 -0.031654
v 0.000000 0.137512 -0.017442
v -0.017473 0.099395 -0.027959
v 0.000000 0.063047 -0.039624
v -0.024800 0.059019 -0.035369
v 0.000000 0.031150 -0.035813
v -0.029937 0.025783 -0.020005
v -0.017491 0.028839 -0.032127
v 0.000000 0.013859 -0.022234
v -0.019766 0.013084 -0.021187
v -0.019766 0.013084 -0.021187
v -0.033277 0.024402 0.000540
v -0.019766 0.013084 -0.021187
v -0.020544 0.011680 0.000163
v -0.017656 0.017415 0.026556
v 0.000000 0.014890 0.022696
v 0.000000 0.010989 0.000003
v 0.000000 0.013859 -0.022234
v -0.073546 0.017209 0.057338
v -0.059629 0.023616 0.049565
v -0.064597 0.016234 0.062654
v -0.071437 0.024047 0.046042
v -0.060596 0.038329 0.048921
v -0.078714 0.022981 0.056164
v -0.076339 0.047089 0.043047
v -0.084421 0.031674 0.060343
v -0.084673 0.055033 0.058946
v -0.079190 0.056046 0.045687
v -0.076319 0.038273 0.070782
v -0.084955 0.067915 0.060034
v -0.077923 0.071895 0.047692
v -0.070589 0.078571 0.052688
v -0.078735 0.059534 0.068705
v -0.079105 0.072782 0.066190
v -0.071587 0.071743 0.071139
v -0.061707 0.077089 0.059668
v -0.056325 0.063413 0.062535
v -0.068187 0.058982 0.072029
v -0.064705 0.035527 0.075608
v -0.053528 0.048622 0.060595
v -0.053705 0.026735 0.062056
v -0.060711 0.026251 0.072610
v -0.060596 0.038329 0.048921
v -0.060219 0.019501 0.069350
v -0.059629 0.023616 0.049565
v -0.064597 0.016234 0.062654
v -0.014318 0.024401 0.031981
v -0.039904 0.027863 0.032721
v -0.018983 0.017785 0.019542
v -0.032929 0.035471 0.044828
v -0.060596 0.038329 0.048921
v -0.016381 0.043869 0.035734
v -0.053528 0.048622 0.060595
v -0.037117 0.055333 0.051175
v -0.028226 0.058540 0.029146
v -0.056325 0.063413 0.062535
v -0.045658 0.069645 0.045065
v -0.061707 0.077089 0.059668
v -0.054797 0.071469 0.035656
v -0.070589 0.078571 0.052688
v -0.037011 0.060494 0.017661
v -0.077923 0.071895 0.047692
v -0.061315 0.063738 0.026039
v -0.042749 0.052317 0.002854
v -0.079190 0.056046 0.045687
v -0.058875 0.045372 0.018207
v -0.035248 0.035522 -0.007560
v -0.076339 0.047089 0.043047
v -0.049863 0.030991 0.020893
v -0.025177 0.017681 -0.000077
v -0.060596 0.038329 0.048921
v -0.018983 0.017785 0.019542
v -0.039904 0.027863 0.032721
v 0.000000 0.137512 0.017933
v 0.000000 0.099617 0.032145
v 0.008828 0.137512 0.016474
v 0.016148 0.099215 0.029454
v 0.000000 0.058989 0.040612
v 0.016544 0.137512 0.009286
v 0.021459 0.057002 0.038471
v 0.000000 0.026708 0.035811
v 0.032193 0.097246 0.015378
v 0.015264 0.024679 0.032953
v 0.000000 0.014890 0.022696
v 0.017656 0.017415 0.026556
v 0.028761 0.023536 0.021998
v 0.017656 0.017415 0.026556
v 0.039989 0.054059 0.023291
v 0.044742 0.051449 0.001279
v 0.035331 0.096666 0.000985
v 0.019277 0.137512 0.000488
v 0.016711 0.137512 -0.008295
v 0.032022 0.097319 -0.012898
v 0.009633 0.137512 -0.015655
v 0.040541 0.054515 -0.018434
v 0.000000 0.099772 -0.031654
v 0.000000 0.137512 -0.017442
v 0.017473 0.099395 -0.027959
v 0.000000 0.063047 -0.039624
v 0.024800 0.059019 -0.035369
v 0.000000 0.031150 -0.035813
v 0.029937 0.025783 -0.020005
v 0.017491 0.028839 -0.032127
v 0.000000 0.013859 -0.022234
v 0.019766 0.013084 -0.021187
v 0.019766 0.013084 -0.021187
v 0.033277 0.024402 0.000540
v 0.019766 0.013084 -0.021187
v 0.020544 0.011680 0.000163
v 0.017656 0.017415 0.026556
v 0.000000 0.014890 0.022696
v 0.000000 0.010989 0.000003
v 0.000000 0.013859 -0.022234
v 0.059629 0.023616 0.049565
v 0.073546 0.017209 0.057338
v 0.064597 0.016234 0.062654
v 0.071437 0.024047 0.046042
v 0.078714 0.022981 0.056164
v 0.060596 0.038329 0.048921
v 0.084421 0.031674 0.060343
v 0.076339 0.047089 0.043047
v 0.084673 0.055033 0.058946
v 0.079190 0.056046 0.045687
v 0.076319 0.038273 0.070782
v 0.084955 0.067915 0.060034
v 0.077923 0.071895 0.047692
v 0.070589 0.078571 0.052688
v 0.078735 0.059534 0.068705
v 0.079105 0.072782 0.066190
v 0.071587 0.071743 0.071139
v 0.061707 0.077089 0.059668
v 0.056325 0.063413 0.062535
v 0.068187 0.058982 0.072029
v 0.064705 0.035527 0.075608
v 0.053528 0.048622 0.060595
v 0.053705 0.026735 0.062056
v 0.060711 0.026251 0.072610
v 0.060596 0.038329 0.048921
v 0.060219 0.019501 0.069350
v 0.059629 0.023616 0.049565
v 0.064597 0.016234 0.062654
v 0.039904 0.027863 0.032721
v 0.014318 0.024401 0.031981
v 0.018983 0.017785 0.019542
v 0.032929 0.035471 0.044828
v 0.060596 0.038329 0.048921
v 0.016381 0.043869 0.035734
v 0.053528 0.048622 0.060595
v 0.037117 0.055333 0.051175
v 0.028226 0.058540 0.029146
v 0.056325 0.063413 0.062535
v 0.045658 0.069645 0.045065
v 0.061707 0.077089 0.059668
v 0.054797 0.071469 0.035656
v 0.070589 0.078571 0.052688
v 0.037011 0.060494 0.017661
v 0.077923 0.071895 0.047692
v 0.061315 0.063738 0.026039
v 0.042749 0.052317 0.002854
v 0.079190 0.056046 0.045687
v 0.058875 0.045372 0.018207
v 0.035248 0.035522 -0.007560
v 0.076339 0.047089 0.043047
v 0.049863 0.030991 0.020893
v 0.025177 0.017681 -0.000077
v 0.060596 0.038329 0.048921
v 0.018983 0.017785 0.019542
v 0.039904 0.027863 0.032721
v -0.022921 0.120552 0.018215
v -0.001514 0.128036 0.033575
v 0.000000 0.118592 0.029514
v -0.023505 0.130382 0.019428
v -0.022008 0.104788 0.035265
v -0.029059 0.127853 0.000684
v -0.035553 0.117780 0.023115
v 0.001514 0.128036 0.033575
v 0.022921 0.120552 0.018215
v 0.000000 0.118592 0.029514
v 0.023505 0.130382 0.019428
v 0.029059 0.127853 0.000684
v 0.022008 0.104788 0.035265
v 0.035553 0.117780 0.023115
v -0.037613 0.215722 0.041132
v 0.000000 0.188880 0.052593
v 0.000000 0.220401 0.050700
v -0.042131 0.184083 0.044365
v -0.061495 0.181350 -0.000000
v 0.000000 0.249339 0.000349
v 0.000000 0.220401 0.050700
v -0.045538 0.230476 0.000349
v -0.037182 0.218531 -0.037182
v 0.000000 0.226887 -0.045538
v -0.045538 0.181350 -0.045538
v -0.040648 0.147061 -0.038850
v 0.000000 0.181350 -0.064400
v 0.000000 0.226887 -0.045538
v 0.000000 0.138754 -0.049492
v 0.000000 0.188880 0.052593
v 0.037613 0.215722 0.041132
v 0.000000 0.220401 0.050700
v 0.042131 0.184083 0.044365
v 0.061495 0.181350 -0.000000
v 0.000000 0.249339 0.000349
v 0.000000 0.220401 0.050700
v 0.045538 0.230476 0.000349
v 0.037182 0.218531 -0.037182
v 0.000000 0.226887 -0.045538
v 0.045538 0.181350 -0.045538
v 0.040648 0.147061 -0.038850
v 0.000000 0.181350 -0.064400
v 0.000000 0.226887 -0.045538
v 0.000000 0.138754 -0.049492
v -0.064597 0.016234 0.062654
v -0.091171 0.000070 0.098938
v -0.073546 0.017209 0.057338
v -0.098879 0.000984 0.093989
v -0.078714 0.022981 0.056164
v -0.108782 0.001826 0.111964
v -0.102622 0.001000 0.116612
v -0.103314 0.006140 0.092537
v -0.112153 0.005321 0.110362
v -0.105730 0.013585 0.095318
v -0.084421 0.031674 0.060343
v -0.112611 0.010259 0.111025
v -0.076319 0.038273 0.070782
v -0.100271 0.019257 0.102972
v -0.109247 0.014320 0.116298
v -0.102138 0.013504 0.120216
v -0.091185 0.017639 0.107184
v -0.064705 0.035527 0.075608
v -0.060711 0.026251 0.072610
v -0.087119 0.010631 0.107142
v -0.099004 0.009415 0.122070
v -0.060219 0.019501 0.069350
v -0.098754 0.004941 0.121002
v -0.091171 0.000070 0.098938
v -0.064597 0.016234 0.062654
v -0.087040 0.004188 0.104673
v -0.102622 0.001000 0.116612
v -0.058797 0.081126 -0.000973
v -0.018413 0.123271 0.008788
v -0.018784 0.128781 -0.002366
v -0.057810 0.076910 0.007067
v -0.017733 0.110197 0.013103
v -0.071961 0.064367 0.007065
v -0.073194 0.067245 -0.000825
v -0.078126 0.058270 -0.000303
v -0.055411 0.067175 0.010293
v -0.017404 0.097374 0.008425
v -0.068341 0.057270 0.010540
v -0.074535 0.052513 0.005854
v -0.052913 0.057603 0.006866
v -0.017291 0.092075 -0.002344
v -0.051798 0.053815 -0.001270
v -0.062527 0.047086 -0.000145
v -0.064430 0.050106 0.007555
v -0.074535 0.052513 0.005854
v -0.070889 0.047746 -0.000685
v -0.058797 0.081126 -0.000973
v -0.018784 0.128781 -0.002366
v -0.018378 0.123293 -0.013535
v -0.057734 0.077302 -0.009119
v -0.017638 0.110209 -0.017852
v -0.071318 0.064217 -0.008522
v -0.073194 0.067245 -0.000825
v -0.078126 0.058270 -0.000303
v -0.074230 0.053213 -0.006822
v -0.067418 0.057053 -0.011513
v -0.055278 0.067719 -0.012552
v -0.017320 0.097385 -0.013114
v -0.052819 0.057994 -0.009321
v -0.017291 0.092075 -0.002344
v -0.051798 0.053815 -0.001270
v -0.062527 0.047086 -0.000145
v -0.063769 0.049958 -0.008040
v -0.074230 0.053213 -0.006822
v -0.070889 0.047746 -0.000685
v 0.073546 0.017209 0.057338
v 0.091171 0.000070 0.098938
v 0.064597 0.016234 0.062654
v 0.098879 0.000984 0.093989
v 0.078714 0.022981 0.056164
v 0.108782 0.001826 0.111964
v 0.102622 0.001000 0.116612
v 0.103314 0.006140 0.092537
v 0.112153 0.005321 0.110362
v 0.105730 0.013585 0.095318
v 0.084421 0.031674 0.060343
v 0.112611 0.010259 0.111025
v 0.076319 0.038273 0.070782
v 0.100271 0.019257 0.102972
v 0.109247 0.014320 0.116298
v 0.102138 0.013504 0.120216
v 0.091185 0.017639 0.107184
v 0.064705 0.035527 0.075608
v 0.060711 0.026251 0.072610
v 0.087119 0.010631 0.107142
v 0.099004 0.009415 0.122070
v 0.060219 0.019501 0.069350
v 0.098754 0.004941 0.121002
v 0.091171 0.000070 0.098938
v 0.064597 0.016234 0.062654
v 0.087040 0.004188 0.104673
v 0.102622 0.001000 0.116612
v 0.018413 0.123271 0.008788
v 0.058797 0.081126 -0.000973
v 0.018784 0.128781 -0.002366
v 0.057810 0.076910 0.007067
v 0.017733 0.110197 0.013103
v 0.071961 0.064367 0.007065
v 0.073194 0.067245 -0.000825
v 0.078126 0.058270 -0.000303
v 0.055411 0.067175 0.010293
v 0.017404 0.097374 0.008425
v 0.068341 0.057270 0.010540
v 0.074535 0.052513 0.005854
v 0.052913 0.057603 0.006866
v 0.017291 0.092075 -0.002344
v 0.051798 0.053815 -0.001270
v 0.062527 0.047086 -0.000145
v 0.064430 0.050106 0.007555
v 0.074535 0.052513 0.005854
v 0.070889 0.047746 -0.000685
v 0.018784 0.128781 -0.002366
v 0.058797 0.081126 -0.000973
v 0.018378 0.123293 -0.013535
v 0.057734 0.077302 -0.009119
v 0.017638 0.110209 -0.017852
v 0.071318 0.064217 -0.008522
v 0.073194 0.067245 -0.000825
v 0.078126 0.058270 -0.000303
v 0.074230 0.053213 -0.006822
v 0.067418 0.057053 -0.011513
v 0.055278 0.067719 -0.012552
v 0.017320 0.097385 -0.013114
v 0.052819 0.057994 -0.009321
v 0.017291 0.092075 -0.002344
v 0.051798 0.053815 -0.001270
v 0.062527 0.047086 -0.000145
v 0.063769 0.049958 -0.008040
v 0.074230 0.053213 -0.006822
v 0.070889 0.047746 -0.000685
v -0.022921 0.120552 0.018215
v -0.015300 0.080803 0.037434
v 0.000000 0.118592 0.029514
v -0.035743 0.078853 0.023152
v -0.023250 0.049285 0.040103
v -0.040831 0.050143 0.024418
v -0.043154 0.073088 0.001300
v -0.029059 0.127853 0.000684
v -0.046301 0.041110 0.003761
v -0.025626 0.128740 -0.011720
v -0.041971 0.072772 -0.019505
v -0.041705 0.019997 -0.022182
v -0.015794 0.128904 -0.021428
v -0.023830 0.073380 -0.038262
v -0.026363 0.010202 -0.046590
v 0.000000 0.128573 -0.025040
v 0.000000 0.033331 -0.048745
v 0.000000 0.069916 -0.042222
v 0.000000 0.118592 0.029514
v 0.015300 0.080803 0.037434
v 0.022921 0.120552 0.018215
v 0.035743 0.078853 0.023152
v 0.023250 0.049285 0.040103
v 0.040831 0.050143 0.024418
v 0.043154 0.073088 0.001300
v 0.029059 0.127853 0.000684
v 0.046301 0.041110 0.003761
v 0.025626 0.128740 -0.011720
v 0.041971 0.072772 -0.019505
v 0.041705 0.019997 -0.022182
v 0.015794 0.128904 -0.021428
v 0.023830 0.073380 -0.038262
v 0.026363 0.010202 -0.046590
v 0.000000 0.128573 -0.025040
v 0.000000 0.033331 -0.048745
v 0.000000 0.069916 -0.042222
v -0.015124 0.028849 -0.002847
v -0.000390 0.009744 -0.061416
v 0.000791 0.012616 -0.003097
v -0.011959 0.021266 -0.064686
v 0.025083 0.009389 -0.100143
v -0.000797 0.033286 -0.061821
v 0.001104 0.044766 -0.003278
v 0.017019 0.028533 -0.003528
v 0.020168 0.018693 -0.108731
v 0.010772 0.021764 -0.058551
v 0.000791 0.012616 -0.003097
v -0.000390 0.009744 -0.061416
v 0.024965 0.028587 -0.100757
v 0.029881 0.019283 -0.092169
v 0.025083 0.009389 -0.100143
v 0.077218 0.009091 -0.100961
v 0.079842 0.017236 -0.108997
v 0.077218 0.009091 -0.100961
v 0.120795 0.009137 -0.065649
v 0.077369 0.025690 -0.101236
v 0.074745 0.017545 -0.093200
v 0.115098 0.015410 -0.063638
v 0.120795 0.009137 -0.065649
v 0.117768 0.009750 -0.027112
v 0.112659 0.015209 -0.027657
v 0.118086 0.020347 -0.027070
v 0.121068 0.021450 -0.065566
v 0.123195 0.014888 -0.026525
v 0.117768 0.009750 -0.027112
v 0.126765 0.015177 -0.067577
v -0.076696 0.051584 -0.000714
v -0.070889 0.047746 -0.000685
v -0.074535 0.052513 0.005854
v -0.078126 0.058270 -0.000303
v -0.074230 0.053213 -0.006822
v 0.076696 0.051584 -0.000714
v 0.074535 0.052513 0.005854
v 0.070889 0.047746 -0.000685
v 0.078126 0.058270 -0.000303
v 0.074230 0.053213 -0.006822
v -0.057631 0.174969 -0.000237
v -0.051953 0.138651 -0.037230
v -0.064797 0.138713 0.012581
v -0.082602 0.211338 0.010474
v -0.069758 0.211276 -0.039337
v 0.057631 0.174969 -0.000237
v 0.064797 0.138713 0.012581
v 0.051953 0.138651 -0.037230
v 0.082602 0.211338 0.010474
v 0.069758 0.211276 -0.039337
v 0.117308 0.015044 -0.021327
v 0.117768 0.009750 -0.027112
v 0.123195 0.014888 -0.026525
v 0.112659 0.015209 -0.027657
v 0.118086 0.020347 -0.027070
v -0.033797 0.217042 0.037149
v 0.000000 0.183463 0.048151
v 0.000000 0.223216 0.039149
v 0.000000 0.242132 -0.006824
v 0.000000 0.223216 0.039149
v -0.041393 0.183436 0.043188
v -0.041393 0.223709 -0.006690
v -0.021873 0.166513 0.052965
v 0.000000 0.166527 0.055909
v 0.000000 0.131618 0.043316
v -0.035948 0.138930 0.037634
v -0.058539 0.178135 -0.003610
v 0.000000 0.120522 0.006053
v 0.000000 0.131618 0.043316
v -0.033797 0.214728 -0.037136
v 0.000000 0.222759 -0.044508
v -0.041393 0.131697 0.002165
v -0.033797 0.140894 -0.032306
v 0.000000 0.132702 -0.038973
v -0.041393 0.178308 -0.042604
v 0.000000 0.178709 -0.059142
v 0.000000 0.222759 -0.044508
v 0.000000 0.132702 -0.038973
v 0.033797 0.217042 0.037149
v 0.000000 0.223216 0.039149
v 0.000000 0.183463 0.048151
v 0.000000 0.242132 -0.006824
v 0.000000 0.223216 0.039149
v 0.041393 0.183436 0.043188
v 0.041393 0.223709 -0.006690
v 0.021873 0.166513 0.052965
v 0.000000 0.166527 0.055909
v 0.000000 0.131618 0.043316
v 0.035948 0.138930 0.037634
v 0.058539 0.178135 -0.003610
v 0.000000 0.120522 0.006053
v 0.000000 0.131618 0.043316
v 0.033797 0.214728 -0.037136
v 0.000000 0.222759 -0.044508
v 0.041393 0.131697 0.002165
v 0.033797 0.140894 -0.032306
v 0.000000 0.132702 -0.038973
v 0.041393 0.178308 -0.042604
v 0.000000 0.178709 -0.059142
v 0.000000 0.222759 -0.044508
v 0.000000 0.132702 -0.038973
v -0.110166 0.005498 0.121552
v -0.102138 0.013504 0.120216
v -0.109247 0.014320 0.116298
v -0.099004 0.009415 0.122070
v -0.112611 0.010259 0.111025
v -0.098754 0.004941 0.121002
v -0.112153 0.005321 0.110362
v -0.102622 0.001000 0.116612
v -0.108782 0.001826 0.111964
v 0.102138 0.013504 0.120216
v 0.110166 0.005498 0.121552
v 0.109247 0.014320 0.116298
v 0.099004 0.009415 0.122070
v 0.112611 0.010259 0.111025
v 0.098754 0.004941 0.121002
v 0.112153 0.005321 0.110362
v 0.102622 0.001000 0.116612
v 0.108782 0.001826 0.111964
v -0.033948 0.217337 0.038510
v 0.000000 0.183961 0.049450
v 0.000000 0.223511 0.040510
v 0.033948 0.217337 0.038510
v -0.041801 0.183720 0.044497
v 0.041801 0.183720 0.044497
v -0.022352 0.166428 0.054278
v -0.036545 0.138348 0.038758
v 0.000000 0.130851 0.044456
v 0.022352 0.166428 0.054278
v 0.036545 0.138348 0.038758
v 0.000000 0.166478 0.057286
vn -0.0000 0.9849 0.1733
vn -0.6865 0.6471 -0.3315
vn -0.7163 0.6848 0.1338
vn -0.3164 0.8622 0.3955
vn -0.0000 0.9463 0.3234
vn -0.0001 0.9849 0.1733
vn -0.0000 0.6324 -0.7747
vn -0.3560 0.6488 -0.6725
vn -0.3561 0.6488 -0.6725
vn -0.6866 0.6471 -0.3315
vn -0.3164 0.8622 0.3956
vn 0.7163 0.6848 0.1338
vn 0.6866 0.6471 -0.3314
vn 0.3164 0.8622 0.3955
vn 0.3561 0.6488 -0.6725
vn 0.6866 0.6471 -0.3315
vn 0.3560 0.6488 -0.6725
vn -0.0000 0.9849 0.1734
vn 0.6590 -0.1020 0.7452
vn 0.5417 0.0314 0.8400
vn 0.0471 0.0393 0.9981
vn -0.0942 0.1099 0.9895
vn -0.4564 -0.0315 0.8892
vn -0.4018 -0.7483 -0.5278
vn -0.7352 -0.5771 -0.3558
vn -0.4017 -0.7484 -0.5278
vn -0.7966 -0.5205 -0.3075
vn -0.9902 -0.0864 0.1100
vn -0.9784 0.0237 0.2052
vn -0.7010 0.3623 0.6143
vn -0.6313 0.4025 0.6629
vn -0.0001 0.5364 0.8440
vn -0.3384 0.5037 0.7949
vn -0.0000 0.9930 -0.1182
vn -0.5978 0.5900 0.5427
vn -0.0000 0.7378 0.6750
vn -0.4885 0.8666 -0.1024
vn -0.9476 0.2054 0.2448
vn -0.9251 0.3795 0.0079
vn -0.9327 -0.2213 0.2846
vn -0.9583 0.2435 -0.1492
vn -0.4884 0.8666 -0.1025
vn -0.5967 0.4789 -0.6438
vn -0.0000 0.5602 -0.8284
vn -0.0000 0.0707 -0.9975
vn -0.6899 0.0627 -0.7212
vn -0.0000 -0.1491 -0.9888
vn -0.9922 0.1181 -0.0394
vn -0.6559 -0.0790 -0.7507
vn -0.0000 0.0236 -0.9997
vn -0.7139 0.1569 0.6825
vn -0.0000 -0.8057 0.5924
vn -0.0000 0.1182 0.9930
vn -0.0000 0.1886 0.9821
vn -0.9969 0.0785 -0.0000
vn -0.6743 0.0470 -0.7370
vn -0.0000 0.6199 -0.7847
vn -0.6381 0.1812 0.7483
vn -0.9980 0.0078 0.0629
vn -0.6285 -0.1100 0.7700
vn -0.0000 -0.1580 0.9874
vn -0.7217 0.4001 -0.5648
vn -0.9873 -0.1580 0.0158
vn -0.6140 -0.6140 0.4959
vn -0.0000 -0.7492 0.6624
vn -0.0000 -0.9849 0.1734
vn -0.5183 -0.8481 0.1099
vn -0.0001 -0.2369 -0.9715
vn -0.9558 -0.2370 -0.1738
vn -0.0000 -0.2370 -0.9715
vn -0.6464 0.6385 -0.4178
vn -0.0000 -0.2369 -0.9715
vn -0.0000 0.8975 -0.4409
vn 0.0001 -0.2369 -0.9715
vn 0.7352 -0.5771 -0.3558
vn 0.4018 -0.7483 -0.5278
vn 0.4017 -0.7483 -0.5278
vn 0.7966 -0.5205 -0.3075
vn 0.9902 -0.0864 0.1100
vn 0.9784 0.0237 0.2052
vn 0.7010 0.3623 0.6143
vn 0.6313 0.4025 0.6629
vn 0.0001 0.5364 0.8440
vn 0.3384 0.5037 0.7949
vn 0.5978 0.5900 0.5427
vn 0.4884 0.8666 -0.1024
vn 0.9476 0.2053 0.2448
vn 0.9251 0.3795 0.0079
vn 0.9327 -0.2213 0.2846
vn 0.9583 0.2435 -0.1492
vn 0.4884 0.8666 -0.1025
vn 0.5967 0.4790 -0.6439
vn 0.6899 0.0627 -0.7212
vn 0.9922 0.1181 -0.0394
vn 0.6559 -0.0790 -0.7507
vn 0.7139 0.1569 0.6825
vn -0.0000 0.1885 0.9821
vn 0.9969 0.0785 -0.0000
vn 0.6743 0.0470 -0.7370
vn 0.6381 0.1812 0.7483
vn 0.9980 0.0078 0.0629
vn 0.6285 -0.1100 0.7700
vn 0.7217 0.4001 -0.5648
vn 0.9873 -0.1580 0.0158
vn 0.6140 -0.6140 0.4959
vn -0.0000 -0.7491 0.6624
vn -0.0000 -0.9849 0.1733
vn 0.5183 -0.8481 0.1099
vn 0.9558 -0.2370 -0.1738
vn 0.6464 0.6385 -0.4178
vn 0.1023 0.0786 0.9916
vn 0.4874 0.0315 0.8726
vn 0.4874 0.0314 0.8726
vn 0.0395 0.0790 0.9961
vn -0.3772 0.1101 0.9196
vn 0.0942 0.1099 0.9895
vn 0.4564 -0.0315 0.8892
vn -0.0471 0.0393 0.9981
vn -0.5417 0.0314 0.8400
vn -0.6590 -0.1020 0.7452
vn -0.4874 0.0315 0.8726
vn -0.1023 0.0786 0.9916
vn -0.4874 0.0314 0.8726
vn -0.0395 0.0790 0.9961
vn 0.3772 0.1101 0.9195
vn 0.7071 -0.7071 -0.0078
vn 0.5200 -0.5200 0.6776
vn 0.7071 -0.7071 -0.0000
vn 0.4503 -0.4582 0.7663
vn -0.0157 -0.0315 0.9994
vn -0.1572 0.1022 0.9823
vn -0.5381 0.4748 0.6964
vn -0.6056 0.5427 0.5820
vn -0.7417 0.6707 0.0079
vn -0.7417 0.6707 -0.0000
vn -0.6159 0.5370 -0.5764
vn -0.5607 0.4738 -0.6791
vn -0.1890 0.1024 -0.9766
vn -0.0472 -0.0393 -0.9981
vn 0.4178 -0.4651 -0.7805
vn 0.4955 -0.5349 -0.6844
vn 0.7071 -0.7071 -0.0079
vn -0.5200 -0.5200 0.6776
vn -0.7071 -0.7071 -0.0078
vn -0.7071 -0.7071 -0.0000
vn -0.4503 -0.4582 0.7663
vn 0.0157 -0.0315 0.9994
vn 0.1572 0.1022 0.9823
vn 0.5381 0.4748 0.6964
vn 0.6056 0.5427 0.5820
vn 0.7417 0.6707 0.0079
vn 0.7417 0.6707 -0.0000
vn 0.6159 0.5370 -0.5764
vn 0.5607 0.4738 -0.6791
vn 0.1890 0.1024 -0.9766
vn 0.0472 -0.0393 -0.9981
vn -0.4178 -0.4651 -0.7805
vn -0.4955 -0.5349 -0.6844
vn -0.7071 -0.7071 -0.0079
vn -0.2197 0.9572 -0.1883
vn -0.2286 0.9066 0.3547
vn -0.2276 0.8946 0.3845
vn -0.1492 0.3455 0.9265
vn -0.1493 0.3221 0.9349
vn -0.1178 0.0864 0.9893
vn -0.1178 0.0863 0.9893
vn -0.0001 -0.8815 -0.4722
vn -0.9328 -0.2213 0.2846
vn -0.0001 -0.8057 0.5924
vn -0.7534 -0.6044 -0.2590
vn -0.9751 -0.0865 0.2044
vn -0.9476 0.2052 0.2448
vn -0.5978 0.5899 0.5427
vn -0.6480 0.2924 0.7033
vn -0.0000 0.4409 0.8976
vn 0.0001 -0.8815 -0.4722
vn 0.0001 -0.8057 0.5924
vn 0.9328 -0.2213 0.2846
vn 0.7534 -0.6044 -0.2590
vn 0.9751 -0.0865 0.2044
vn 0.9476 0.2052 0.2448
vn 0.5978 0.5899 0.5427
vn 0.6480 0.2924 0.7033
vn -0.4104 0.3630 0.8365
vn -0.0000 0.2830 0.9591
vn -0.0000 0.3468 0.9379
vn -0.4107 0.3001 0.8609
vn -0.0000 0.0315 0.9995
vn -0.7929 0.3768 0.4789
vn -0.4090 0.0157 0.9124
vn -0.0000 -0.4315 0.9021
vn -0.8338 0.2989 0.4641
vn -0.2765 -0.4424 0.8532
vn -0.0000 -0.9052 0.4251
vn -0.3308 -0.7876 0.5198
vn -0.7350 -0.5137 0.4426
vn -0.3308 -0.7876 0.5199
vn -0.8579 -0.0472 0.5116
vn -0.9947 -0.1026 -0.0000
vn -0.9570 0.2902 -0.0000
vn -0.9263 0.3768 -0.0000
vn -0.8176 0.3616 -0.4481
vn -0.8523 0.2920 -0.4340
vn -0.4586 0.3558 -0.8143
vn -0.8890 -0.0393 -0.4563
vn -0.0000 0.2830 -0.9591
vn -0.0000 0.3468 -0.9379
vn -0.4713 0.2907 -0.8327
vn -0.0001 0.0550 -0.9985
vn -0.4967 0.0315 -0.8673
vn -0.0000 -0.3468 -0.9379
vn -0.7782 -0.4401 -0.4480
vn -0.3462 -0.3620 -0.8655
vn -0.0000 -0.8589 -0.5122
vn -0.3776 -0.8102 -0.4484
vn -0.8380 -0.5455 0.0158
vn -0.3776 -0.8102 -0.4483
vn -0.3927 -0.9188 0.0393
vn -0.3308 -0.7877 0.5198
vn -0.0000 -0.9052 0.4250
vn -0.0000 -0.9989 0.0472
vn -0.1811 -0.8349 -0.5198
vn 0.5916 -0.4812 -0.6469
vn 0.4236 -0.8788 -0.2197
vn -0.1969 -0.4881 -0.8503
vn 0.3630 -0.8366 -0.4104
vn -0.7004 -0.4013 -0.5902
vn -0.7433 -0.3637 -0.5615
vn -0.9494 0.0706 -0.3060
vn -0.9980 -0.0000 0.0629
vn -0.8589 -0.0079 -0.5121
vn -0.5767 0.4977 0.6478
vn -0.9428 0.3221 0.0864
vn -0.6925 0.5587 -0.4564
vn -0.1886 0.9740 -0.1256
vn -0.6194 0.0392 0.7841
vn -0.5837 0.6231 0.5206
vn 0.0158 0.5121 0.8588
vn 0.3790 0.8369 0.3948
vn 0.6354 0.2746 0.7217
vn 0.1736 0.1657 0.9708
vn 0.4796 0.3380 0.8098
vn 0.6921 -0.1415 0.7078
vn 0.9614 -0.2679 0.0630
vn 0.8018 -0.0157 0.5974
vn 0.3630 -0.8365 -0.4104
vn 0.7874 -0.5590 0.2598
vn 0.5917 -0.4812 -0.6468
vn 0.4237 -0.8788 -0.2197
vn 0.1183 -0.6942 0.7100
vn -0.2528 -0.9088 0.3319
vn -0.2762 -0.9156 0.2921
vn 0.2763 -0.5367 0.7972
vn 0.3631 -0.8365 -0.4103
vn 0.6365 0.1179 0.7622
vn 0.6921 -0.1416 0.7078
vn 0.6599 0.2750 0.6992
vn 0.5901 0.7948 0.1416
vn 0.5527 0.8133 0.1816
vn 0.3791 0.8370 0.3947
vn 0.0865 0.9282 -0.3619
vn -0.1885 0.9740 -0.1257
vn 0.1334 0.9101 -0.3923
vn -0.4948 0.5655 -0.6598
vn -0.5975 0.3773 -0.7075
vn -0.8588 -0.0079 -0.5122
vn -0.7758 -0.1567 -0.6112
vn -0.7476 -0.3935 -0.5351
vn -0.7433 -0.3638 -0.5614
vn -0.6134 -0.7628 -0.2045
vn -0.5769 -0.7981 -0.1738
vn -0.2763 -0.9156 0.2920
vn -0.2529 -0.9088 0.3319
vn 0.4103 0.3630 0.8366
vn 0.4107 0.3001 0.8609
vn 0.7929 0.3768 0.4789
vn 0.4090 0.0157 0.9124
vn 0.8338 0.2989 0.4641
vn 0.2765 -0.4424 0.8532
vn 0.3308 -0.7876 0.5199
vn 0.7350 -0.5137 0.4426
vn 0.3308 -0.7876 0.5198
vn 0.8579 -0.0472 0.5116
vn 0.9947 -0.1026 -0.0000
vn 0.9570 0.2902 -0.0000
vn 0.9263 0.3768 -0.0000
vn 0.8176 0.3616 -0.4481
vn 0.8523 0.2920 -0.4340
vn 0.4586 0.3558 -0.8143
vn 0.8890 -0.0393 -0.4563
vn 0.4713 0.2907 -0.8327
vn 0.0001 0.0550 -0.9985
vn 0.4967 0.0315 -0.8673
vn 0.7782 -0.4401 -0.4480
vn 0.3462 -0.3620 -0.8655
vn 0.3775 -0.8102 -0.4483
vn 0.3776 -0.8102 -0.4484
vn 0.8380 -0.5455 0.0158
vn 0.3927 -0.9188 0.0393
vn 0.3308 -0.7877 0.5198
vn -0.5916 -0.4812 -0.6469
vn 0.1811 -0.8349 -0.5198
vn -0.4236 -0.8788 -0.2197
vn 0.1969 -0.4881 -0.8503
vn 0.7004 -0.4013 -0.5902
vn -0.3630 -0.8366 -0.4104
vn 0.9494 0.0706 -0.3060
vn 0.7433 -0.3637 -0.5615
vn 0.9980 -0.0000 0.0629
vn 0.8589 -0.0079 -0.5121
vn 0.5767 0.4977 0.6478
vn 0.9428 0.3221 0.0864
vn 0.6925 0.5587 -0.4564
vn 0.1885 0.9740 -0.1256
vn 0.6194 0.0392 0.7841
vn 0.5837 0.6231 0.5206
vn -0.0158 0.5121 0.8588
vn -0.3790 0.8370 0.3948
vn -0.6354 0.2745 0.7217
vn -0.1736 0.1657 0.9708
vn -0.4796 0.3380 0.8098
vn -0.6921 -0.1415 0.7078
vn -0.9614 -0.2679 0.0630
vn -0.8018 -0.0157 0.5974
vn -0.3630 -0.8365 -0.4104
vn -0.7874 -0.5590 0.2598
vn -0.5917 -0.4812 -0.6468
vn -0.4237 -0.8787 -0.2197
vn 0.2529 -0.9088 0.3319
vn -0.1183 -0.6942 0.7100
vn 0.2762 -0.9156 0.2921
vn -0.2763 -0.5367 0.7972
vn -0.3631 -0.8365 -0.4103
vn -0.6365 0.1179 0.7622
vn -0.6921 -0.1416 0.7078
vn -0.6599 0.2750 0.6992
vn -0.5902 0.7947 0.1416
vn -0.6354 0.2746 0.7217
vn -0.5527 0.8133 0.1816
vn -0.3790 0.8370 0.3947
vn -0.0865 0.9282 -0.3619
vn 0.1885 0.9740 -0.1257
vn -0.1334 0.9101 -0.3923
vn 0.6924 0.5587 -0.4565
vn 0.4948 0.5655 -0.6598
vn 0.5975 0.3773 -0.7075
vn 0.8588 -0.0079 -0.5122
vn 0.7758 -0.1567 -0.6112
vn 0.7476 -0.3935 -0.5351
vn 0.7433 -0.3638 -0.5614
vn 0.6134 -0.7628 -0.2045
vn 0.5769 -0.7981 -0.1738
vn 0.2763 -0.9156 0.2920
vn -0.3165 0.8622 0.3955
vn 0.3162 0.8695 -0.3794
vn -0.0000 0.9463 0.3233
vn 0.0869 0.9954 0.0395
vn -0.3850 0.4714 0.7935
vn -0.7164 0.6848 0.1338
vn -0.5346 0.5897 0.6054
vn -0.3162 0.8695 -0.3794
vn 0.3165 0.8622 0.3956
vn 0.0001 0.9463 0.3233
vn -0.0869 0.9954 0.0395
vn 0.7163 0.6848 0.1339
vn 0.3850 0.4714 0.7935
vn 0.5346 0.5897 0.6054
vn -0.5743 0.4721 0.6688
vn -0.0001 0.0948 0.9955
vn -0.0000 0.5511 0.8345
vn -0.6671 0.1491 0.7299
vn -0.9798 0.1896 -0.0632
vn -0.0000 0.9997 0.0236
vn -0.7071 0.7071 0.0079
vn -0.5902 0.5508 -0.5902
vn -0.0000 0.6832 -0.7303
vn -0.7105 0.0395 -0.7026
vn -0.5981 -0.2675 -0.7555
vn -0.0000 0.6831 -0.7303
vn -0.0000 -0.2924 -0.9563
vn 0.0001 0.0948 0.9955
vn 0.5744 0.4721 0.6688
vn 0.6671 0.1491 0.7299
vn 0.9798 0.1896 -0.0632
vn 0.7071 0.7071 0.0079
vn 0.5902 0.5508 -0.5902
vn 0.7105 0.0395 -0.7026
vn 0.5981 -0.2675 -0.7555
vn 0.0001 0.6832 -0.7303
vn 0.2591 -0.9658 -0.0079
vn -0.3075 -0.8829 -0.3548
vn -0.7004 -0.4014 -0.5902
vn -0.4628 -0.8865 -0.0000
vn -0.0000 -0.9196 0.3929
vn -0.7340 -0.4262 -0.5288
vn -0.9077 -0.4026 -0.1184
vn -0.8770 0.3318 -0.3476
vn -0.9494 0.0707 -0.3060
vn -0.9463 0.3155 -0.0710
vn -0.5768 0.4977 0.6478
vn -0.3703 0.9140 0.1655
vn -0.5818 0.7076 0.4010
vn 0.0631 0.6938 0.7174
vn 0.3706 0.7096 0.5993
vn 0.4796 0.3381 0.8098
vn 0.7731 0.0631 0.6311
vn 0.4101 0.0947 0.9071
vn 0.4262 -0.5603 0.7102
vn 0.2592 -0.9658 -0.0079
vn 0.6982 -0.5883 0.4079
vn -0.7378 0.6750 -0.0000
vn -0.6386 0.5282 0.5597
vn -0.7708 0.6371 -0.0000
vn -0.5198 0.4883 0.7010
vn -0.1978 0.1187 0.9730
vn -0.6252 0.3957 0.6727
vn -0.8044 0.5915 -0.0552
vn -0.9895 0.1413 0.0314
vn 0.0157 -0.0236 0.9996
vn 0.4570 -0.4413 0.7722
vn -0.2598 -0.1023 0.9602
vn -0.6371 -0.4562 0.6213
vn 0.4789 -0.5417 0.6908
vn 0.7378 -0.6750 -0.0078
vn 0.6371 -0.7707 -0.0079
vn 0.2367 -0.9704 0.0474
vn 0.1101 -0.7027 0.7030
vn -0.3318 -0.9400 -0.0790
vn -0.7708 0.6371 -0.0001
vn -0.6632 0.5132 -0.5448
vn -0.5597 0.4651 -0.6858
vn -0.2519 0.1181 -0.9605
vn -0.6226 0.3468 -0.7014
vn -0.6613 -0.3542 -0.6613
vn -0.2448 -0.2053 -0.9476
vn -0.0550 -0.0392 -0.9977
vn 0.4026 -0.4499 -0.7972
vn 0.4389 -0.5565 -0.7054
vn 0.7378 -0.6750 -0.0079
vn 0.6371 -0.7708 -0.0079
vn 0.2367 -0.9704 0.0473
vn 0.1027 -0.7343 -0.6711
vn -0.6612 -0.3543 -0.6613
vn -0.2591 -0.9658 -0.0079
vn -0.4237 -0.8788 -0.2197
vn 0.3075 -0.8829 -0.3548
vn 0.7004 -0.4014 -0.5902
vn 0.4628 -0.8865 -0.0001
vn 0.7340 -0.4262 -0.5288
vn 0.9077 -0.4025 -0.1184
vn 0.8770 0.3318 -0.3476
vn 0.9494 0.0707 -0.3060
vn 0.9463 0.3155 -0.0710
vn 0.5767 0.4977 0.6479
vn 0.3703 0.9140 0.1655
vn 0.5818 0.7076 0.4010
vn -0.0631 0.6938 0.7174
vn -0.3706 0.7096 0.5993
vn -0.4796 0.3381 0.8098
vn -0.7731 0.0631 0.6311
vn -0.4102 0.0946 0.9071
vn -0.4262 -0.5603 0.7102
vn -0.2591 -0.9658 -0.0078
vn -0.6982 -0.5883 0.4079
vn -0.0000 -0.9195 0.3930
vn 0.6386 0.5282 0.5597
vn 0.7378 0.6750 0.0001
vn 0.7708 0.6371 -0.0000
vn 0.5198 0.4883 0.7010
vn 0.1978 0.1187 0.9730
vn 0.6252 0.3957 0.6727
vn 0.8044 0.5915 -0.0552
vn 0.9895 0.1413 0.0314
vn -0.0157 -0.0236 0.9996
vn -0.4571 -0.4413 0.7722
vn 0.2598 -0.1023 0.9602
vn 0.6371 -0.4562 0.6213
vn -0.4789 -0.5417 0.6908
vn -0.7378 -0.6750 -0.0078
vn -0.6370 -0.7708 -0.0079
vn -0.2367 -0.9704 0.0474
vn -0.1105 -0.7028 0.7028
vn 0.3318 -0.9400 -0.0790
vn 0.7708 0.6371 -0.0001
vn 0.7378 0.6750 -0.0000
vn 0.6632 0.5132 -0.5448
vn 0.5597 0.4651 -0.6858
vn 0.2519 0.1181 -0.9605
vn 0.6226 0.3468 -0.7014
vn 0.9895 0.1414 0.0314
vn 0.6613 -0.3542 -0.6612
vn 0.2448 -0.2053 -0.9476
vn 0.0550 -0.0393 -0.9977
vn -0.4025 -0.4499 -0.7972
vn -0.4389 -0.5565 -0.7054
vn -0.7378 -0.6750 -0.0079
vn -0.6371 -0.7708 -0.0079
vn -0.2367 -0.9704 0.0473
vn -0.1027 -0.7343 -0.6711
vn 0.6612 -0.3543 -0.6612
vn -0.3164 0.8623 0.3955
vn -0.5423 0.2515 0.8017
vn -0.7885 0.2366 0.5677
vn -0.6125 0.1806 0.7695
vn -0.8507 0.1733 0.4962
vn -0.9810 0.1805 0.0706
vn -0.8990 0.1735 -0.4022
vn -0.8694 0.0632 -0.4900
vn -0.4805 0.2127 -0.8508
vn -0.5604 0.1105 -0.8208
vn -0.0000 0.1491 -0.9888
vn -0.0000 0.2128 -0.9771
vn 0.5423 0.2515 0.8017
vn 0.7885 0.2366 0.5677
vn 0.6125 0.1806 0.7696
vn 0.8507 0.1733 0.4962
vn 0.9810 0.1805 0.0706
vn 0.8990 0.1735 -0.4022
vn 0.8694 0.0632 -0.4900
vn 0.3560 0.6488 -0.6726
vn 0.4805 0.2127 -0.8508
vn 0.5604 0.1105 -0.8208
vn -0.0000 0.6323 -0.7747
vn -0.9970 0.0550 -0.0549
vn -0.1182 -0.9930 -0.0079
vn 0.0001 -0.9989 0.0471
vn -0.9458 -0.0316 -0.3231
vn -0.0866 -0.9837 -0.1574
vn -0.1102 0.9758 -0.1889
vn 0.0079 0.9802 -0.1976
vn 0.9931 0.0394 -0.1104
vn -0.4658 -0.0316 -0.8843
vn 0.9771 -0.0000 0.2127
vn -0.0472 0.9686 -0.2441
vn 0.5119 0.0315 0.8585
vn 0.0471 -0.9909 -0.1259
vn 0.3467 -0.0158 -0.9378
vn 0.0472 -0.9909 -0.1258
vn 0.1574 -0.9837 -0.0866
vn 0.1178 0.9818 -0.1492
vn -0.2995 0.0236 0.9538
vn -0.8943 0.0157 0.4472
vn -0.0551 -0.9449 0.3228
vn -0.9735 0.0235 0.2276
vn -0.0000 0.9439 0.3303
vn 0.2198 0.9735 -0.0628
vn 0.9121 -0.0315 0.4088
vn -0.0552 -0.9448 0.3228
vn 0.9312 -0.0315 -0.3630
vn -0.8271 -0.5593 -0.0552
vn -0.6613 -0.3543 -0.6612
vn 0.8271 -0.5593 -0.0552
vn 0.6613 -0.3543 -0.6612
vn -0.8934 -0.2135 -0.3953
vn -0.9943 -0.0710 -0.0789
vn -0.8973 0.0236 -0.4408
vn -0.8081 -0.4394 -0.3923
vn -0.9167 -0.3918 -0.0784
vn 0.8934 -0.2135 -0.3953
vn 0.8973 0.0236 -0.4408
vn 0.9943 -0.0710 -0.0789
vn 0.8081 -0.4394 -0.3923
vn 0.9167 -0.3918 -0.0784
vn -0.1104 -0.0000 0.9939
vn -0.0551 -0.9448 0.3228
vn 0.9120 -0.0314 0.4089
vn -0.9734 0.0236 0.2277
vn -0.0000 0.9439 0.3304
vn -0.5341 0.5655 0.6284
vn -0.0000 0.3139 0.9495
vn -0.0000 0.6912 0.7226
vn -0.0000 0.9985 -0.0551
vn -0.6935 0.1261 0.7093
vn -0.7174 0.6938 -0.0631
vn -0.2758 -0.0079 0.9612
vn -0.0000 0.0157 0.9999
vn -0.5904 -0.5746 0.5668
vn -0.9989 -0.0000 -0.0471
vn -0.0000 -1.0000 0.0079
vn -0.5837 0.5206 -0.6231
vn -0.0000 0.6540 -0.7565
vn -0.6871 -0.7266 -0.0079
vn -0.5586 -0.6058 -0.5665
vn -0.0000 -0.7417 -0.6707
vn -0.6946 -0.0395 -0.7183
vn -0.0001 -0.0472 -0.9989
vn 0.5341 0.5655 0.6284
vn -0.0000 0.9985 -0.0550
vn 0.6935 0.1261 0.7093
vn 0.7174 0.6938 -0.0631
vn 0.2758 -0.0079 0.9612
vn -0.0000 0.0158 0.9999
vn 0.5904 -0.5746 0.5668
vn 0.9989 -0.0000 -0.0471
vn -0.0000 -1.0000 0.0078
vn 0.5837 0.5206 -0.6231
vn -0.0000 0.6541 -0.7565
vn 0.6871 -0.7266 -0.0079
vn 0.5586 -0.6058 -0.5665
vn 0.6946 -0.0395 -0.7183
vn 0.0001 -0.0472 -0.9989
vn -0.6066 -0.2679 0.7485
vn 0.4102 0.0946 0.9071
vn -0.9463 0.3154 -0.0710
vn 0.4261 -0.5603 0.7102
vn -0.9077 -0.4025 -0.1184
vn -0.0001 -0.9195 0.3930
vn -0.4629 -0.8864 -0.0000
vn 0.6066 -0.2679 0.7485
vn 0.9463 0.3154 -0.0710
vn -0.4261 -0.5603 0.7102
vn 0.9077 -0.4026 -0.1184
vn 0.4629 -0.8864 -0.0000
vn -0.1105 0.2131 0.9708
vn -0.0000 0.3068 0.9518
vn -0.0000 0.2128 0.9771
vn 0.1105 0.2131 0.9708
vn -0.2525 0.1578 0.9547
vn 0.2525 0.1578 0.9547
vn -0.2757 -0.0157 0.9611
vn -0.3151 -0.3072 0.8980
vn -0.0000 -0.3701 0.9290
vn 0.2757 -0.0157 0.9611
vn 0.3151 -0.3072 0.8980
vt 0.673828 0.330078
vt 0.656250 0.335938
vt 0.656250 0.304688
vt 0.685059 0.292969
vt 0.679688 0.281250
vt 0.710938 0.273438
vt 0.710938 0.354004
vt 0.710938 0.367188
vt 0.679688 0.359375
vt 0.687988 0.346191
vt 0.671387 0.312500
vt 0.843750 0.421875
vt 0.945312 0.421875
vt 0.843750 0.281250
vt 0.945312 0.281250
vt 0.843750 0.226562
vt 0.945312 0.226562
vt 0.093750 0.710938
vt 0.054688 0.687500
vt 0.054688 0.710938
vt 0.093750 0.687500
vt 0.054688 0.664062
vt 0.093750 0.664062
vt 0.054688 0.640625
vt 0.093750 0.640625
vt 0.093750 0.617188
vt 0.054688 0.617188
vt 0.007812 0.898438
vt 0.039062 0.945312
vt 0.007812 0.945312
vt 0.039062 0.898438
vt 0.070312 0.945312
vt 0.070312 0.898438
vt 0.117188 0.945312
vt 0.117188 0.898438
vt 0.070312 0.851562
vt 0.117188 0.851562
vt 0.070312 0.804688
vt 0.117188 0.804688
vt 0.171875 0.804688
vt 0.171875 0.851562
vt 0.265625 0.804688
vt 0.171875 0.898438
vt 0.265625 0.851562
vt 0.351562 0.804688
vt 0.171875 0.945312
vt 0.117188 0.992188
vt 0.171875 0.992188
vt 0.265625 0.992188
vt 0.265625 0.898438
vt 0.351562 0.851562
vt 0.445312 0.804688
vt 0.265625 0.945312
vt 0.351562 0.898438
vt 0.351562 0.945312
vt 0.351562 0.992188
vt 0.445312 0.851562
vt 0.445312 0.898438
vt 0.445312 0.945312
vt 0.445312 0.992188
vt 0.562500 0.992188
vt 0.562500 0.945312
vt 0.656250 0.968750
vt 0.562500 0.898438
vt 0.656250 0.921875
vt 0.562500 0.851562
vt 0.656250 0.875000
vt 0.562500 0.804688
vt 0.656250 0.828125
vt 0.726562 0.375000
vt 0.828125 0.421875
vt 0.726562 0.421875
vt 0.828125 0.375000
vt 0.726562 0.218750
vt 0.828125 0.218750
vt 0.039062 0.414062
vt 0.093750 0.437500
vt 0.093750 0.414062
vt 0.031250 0.437500
vt 0.093750 0.460938
vt 0.023438 0.460938
vt 0.093750 0.484375
vt 0.007812 0.484375
vt 0.093750 0.507812
vt 0.007812 0.507812
vt 0.007812 0.531250
vt 0.093750 0.531250
vt 0.023438 0.554688
vt 0.093750 0.554688
vt 0.031250 0.578125
vt 0.093750 0.578125
vt 0.093750 0.601562
vt 0.039062 0.601562
vt 0.710938 0.257812
vt 0.664062 0.203125
vt 0.710938 0.203125
vt 0.664062 0.257812
vt 0.617188 0.203125
vt 0.617188 0.257812
vt 0.570312 0.203125
vt 0.570312 0.257812
vt 0.710938 0.187500
vt 0.656250 0.117188
vt 0.710938 0.117188
vt 0.656250 0.187500
vt 0.609375 0.187500
vt 0.609375 0.117188
vt 0.578125 0.117188
vt 0.578125 0.187500
vt 0.546875 0.187500
vt 0.546875 0.117188
vt 0.210938 0.164062
vt 0.304688 0.117188
vt 0.210938 0.117188
vt 0.304688 0.164062
vt 0.398438 0.117188
vt 0.210938 0.210938
vt 0.398438 0.164062
vt 0.468750 0.117188
vt 0.304688 0.210938
vt 0.468750 0.164062
vt 0.507812 0.117188
vt 0.507812 0.164062
vt 0.468750 0.210938
vt 0.507812 0.187500
vt 0.398438 0.210938
vt 0.398438 0.257812
vt 0.304688 0.257812
vt 0.210938 0.257812
vt 0.210938 0.304688
vt 0.304688 0.304688
vt 0.210938 0.351562
vt 0.398438 0.304688
vt 0.304688 0.398438
vt 0.210938 0.398438
vt 0.304688 0.351562
vt 0.398438 0.398438
vt 0.398438 0.351562
vt 0.468750 0.398438
vt 0.468750 0.304688
vt 0.468750 0.351562
vt 0.507812 0.398438
vt 0.507812 0.351562
vt 0.507812 0.328125
vt 0.468750 0.257812
vt 0.507812 0.304688
vt 0.507812 0.257812
vt 0.507812 0.210938
vt 0.546875 0.210938
vt 0.546875 0.257812
vt 0.546875 0.304688
vt 0.140625 0.265625
vt 0.164062 0.289062
vt 0.164062 0.265625
vt 0.140625 0.289062
vt 0.164062 0.312500
vt 0.125000 0.281250
vt 0.140625 0.343750
vt 0.109375 0.296875
vt 0.109375 0.343750
vt 0.132812 0.367188
vt 0.085938 0.304688
vt 0.109375 0.367188
vt 0.109375 0.390625
vt 0.085938 0.398438
vt 0.085938 0.343750
vt 0.085938 0.367188
vt 0.062500 0.367188
vt 0.062500 0.390625
vt 0.039062 0.367188
vt 0.062500 0.343750
vt 0.062500 0.296875
vt 0.031250 0.343750
vt 0.031250 0.289062
vt 0.046875 0.281250
vt 0.007812 0.312500
vt 0.031250 0.265625
vt 0.007812 0.289062
vt 0.007812 0.265625
vt 0.031250 0.156250
vt 0.007812 0.203125
vt 0.007812 0.156250
vt 0.031250 0.203125
vt 0.007812 0.250000
vt 0.054688 0.156250
vt 0.031250 0.250000
vt 0.054688 0.203125
vt 0.078125 0.156250
vt 0.054688 0.250000
vt 0.078125 0.203125
vt 0.078125 0.250000
vt 0.101562 0.203125
vt 0.101562 0.250000
vt 0.101562 0.156250
vt 0.125000 0.250000
vt 0.125000 0.203125
vt 0.125000 0.156250
vt 0.148438 0.250000
vt 0.148438 0.203125
vt 0.148438 0.156250
vt 0.171875 0.250000
vt 0.171875 0.203125
vt 0.171875 0.156250
vt 0.195312 0.250000
vt 0.195312 0.156250
vt 0.195312 0.203125
vt 0.992188 0.054688
vt 0.984375 0.000000
vt 0.992188 0.000000
vt 0.984375 0.054688
vt 0.945312 0.000000
vt 0.992188 0.101562
vt 0.945312 0.054688
vt 0.523438 0.664062
vt 0.617188 0.757812
vt 0.523438 0.757812
vt 0.617188 0.664062
vt 0.617188 0.570312
vt 0.429688 0.570312
vt 0.429688 0.664062
vt 0.523438 0.570312
vt 0.523438 0.476562
vt 0.429688 0.476562
vt 0.617188 0.476562
vt 0.710938 0.476562
vt 0.617188 0.382812
vt 0.523438 0.382812
vt 0.710938 0.382812
vt 0.007812 0.140625
vt 0.007812 0.046875
vt 0.031250 0.140625
vt 0.031250 0.046875
vt 0.054688 0.140625
vt 0.031250 0.007812
vt 0.007812 0.007812
vt 0.054688 0.046875
vt 0.054688 0.007812
vt 0.078125 0.046875
vt 0.078125 0.140625
vt 0.078125 0.007812
vt 0.101562 0.140625
vt 0.101562 0.046875
vt 0.101562 0.007812
vt 0.125000 0.007812
vt 0.125000 0.046875
vt 0.125000 0.140625
vt 0.148438 0.140625
vt 0.148438 0.046875
vt 0.148438 0.007812
vt 0.171875 0.140625
vt 0.171875 0.007812
vt 0.195312 0.046875
vt 0.195312 0.140625
vt 0.171875 0.046875
vt 0.195312 0.007812
vt 0.414062 0.476562
vt 0.390625 0.601562
vt 0.414062 0.601562
vt 0.390625 0.476562
vt 0.367188 0.601562
vt 0.390625 0.437500
vt 0.414062 0.437500
vt 0.414062 0.414062
vt 0.367188 0.476562
vt 0.343750 0.601562
vt 0.367188 0.437500
vt 0.390625 0.414062
vt 0.343750 0.476562
vt 0.320312 0.601562
vt 0.320312 0.476562
vt 0.320312 0.437500
vt 0.343750 0.437500
vt 0.367188 0.414062
vt 0.343750 0.414062
vt 0.210938 0.476562
vt 0.210938 0.601562
vt 0.234375 0.601562
vt 0.234375 0.476562
vt 0.257812 0.601562
vt 0.234375 0.437500
vt 0.210938 0.437500
vt 0.234375 0.414062
vt 0.257812 0.414062
vt 0.257812 0.437500
vt 0.257812 0.476562
vt 0.281250 0.601562
vt 0.281250 0.476562
vt 0.304688 0.601562
vt 0.304688 0.476562
vt 0.304688 0.437500
vt 0.281250 0.437500
vt 0.281250 0.414062
vt 0.304688 0.414062
vt 0.945312 0.046875
vt 0.828125 0.007812
vt 0.945312 0.007812
vt 0.828125 0.046875
vt 0.726562 0.007812
vt 0.726562 0.046875
vt 0.828125 0.085938
vt 0.945312 0.085938
vt 0.726562 0.085938
vt 0.945312 0.125000
vt 0.828125 0.125000
vt 0.726562 0.125000
vt 0.945312 0.164062
vt 0.828125 0.164062
vt 0.726562 0.164062
vt 0.945312 0.203125
vt 0.726562 0.203125
vt 0.828125 0.203125
vt 0.710938 0.031250
vt 0.593750 0.007812
vt 0.710938 0.007812
vt 0.593750 0.031250
vt 0.500000 0.007812
vt 0.593750 0.054688
vt 0.710938 0.054688
vt 0.710938 0.078125
vt 0.500000 0.031250
vt 0.593750 0.078125
vt 0.710938 0.101562
vt 0.593750 0.101562
vt 0.500000 0.054688
vt 0.500000 0.078125
vt 0.500000 0.101562
vt 0.398438 0.101562
vt 0.398438 0.031250
vt 0.398438 0.007812
vt 0.289062 0.007812
vt 0.398438 0.054688
vt 0.398438 0.078125
vt 0.289062 0.078125
vt 0.289062 0.101562
vt 0.210938 0.101562
vt 0.210938 0.078125
vt 0.210938 0.054688
vt 0.289062 0.054688
vt 0.210938 0.031250
vt 0.210938 0.007812
vt 0.289062 0.031250
vt 0.023438 0.679688
vt 0.007812 0.695312
vt 0.039062 0.695312
vt 0.039062 0.664062
vt 0.007812 0.664062
vt 0.859375 0.468750
vt 0.789062 0.539062
vt 0.789062 0.437500
vt 0.945312 0.437500
vt 0.945312 0.539062
vt 0.023438 0.632812
vt 0.007812 0.617188
vt 0.039062 0.617188
vt 0.007812 0.648438
vt 0.039062 0.648438
vt 0.757812 0.632812
vt 0.679688 0.710938
vt 0.679688 0.632812
vt 0.835938 0.554688
vt 0.757812 0.554688
vt 0.757812 0.710938
vt 0.835938 0.632812
vt 0.718750 0.734375
vt 0.679688 0.734375
vt 0.679688 0.789062
vt 0.757812 0.789062
vt 0.835938 0.710938
vt 0.835938 0.867188
vt 0.757812 0.867188
vt 0.914062 0.632812
vt 0.914062 0.554688
vt 0.835938 0.789062
vt 0.914062 0.789062
vt 0.914062 0.867188
vt 0.914062 0.710938
vt 0.992188 0.710938
vt 0.992188 0.632812
vt 0.992188 0.789062
vt 0.023438 0.726562
vt 0.039062 0.742188
vt 0.023438 0.742188
vt 0.039062 0.726562
vt 0.007812 0.742188
vt 0.039062 0.710938
vt 0.007812 0.726562
vt 0.023438 0.710938
vt 0.007812 0.710938
vt 0.000031 0.999969
vt 0.500000 0.562500
vt 0.500000 0.999969
vt 1.000000 0.999969
vt 0.000031 0.562500
vt 1.000000 0.562500
vt 0.250000 0.406250
vt -0.000031 0.000000
vt 0.500000 0.000000
vt 0.750000 0.406250
vt 1.000000 0.000000
vt 0.500000 0.406250
s 1
usemtl argus
f 1/1/1 2/2/2 3/3/3
f 4/4/1 5/5/4 6/6/5
f 7/7/6 8/8/7 9/9/8
f 10/10/1 11/9/9 12/2/10
f 13/11/1 14/3/3 15/5/11
f 16/1/1 17/3/12 18/2/13
f 19/4/1 20/6/5 21/5/14
f 22/7/1 23/9/15 24/8/7
f 25/10/1 26/2/16 27/9/17
f 28/11/18 29/5/14 30/3/12
f 31/12/19 32/13/20 33/14/21
f 33/14/21 32/13/20 34/15/22
f 34/15/22 35/16/23 33/14/21
f 35/16/23 34/15/22 36/17/23
f 37/18/24 38/19/25 39/20/26
f 38/19/25 37/18/24 40/21/27
f 40/21/27 41/22/28 38/19/25
f 41/22/28 40/21/27 42/23/29
f 42/23/29 43/24/30 41/22/28
f 43/24/30 42/23/29 44/25/31
f 45/26/32 43/24/30 44/25/31
f 43/24/30 45/26/32 46/27/33
f 47/28/34 48/29/35 49/30/36
f 50/31/37 48/29/35 47/28/34
f 50/31/37 51/32/38 48/29/35
f 51/32/38 50/31/37 52/33/39
f 52/33/39 53/34/40 51/32/38
f 53/34/40 52/33/39 54/35/41
f 55/36/42 54/35/41 52/33/39
f 55/36/42 56/37/43 54/35/41
f 57/38/34 56/37/43 55/36/42
f 56/37/43 57/38/34 58/39/44
f 58/39/44 59/40/45 56/37/43
f 56/37/43 59/40/45 60/41/46
f 60/41/46 54/35/41 56/37/43
f 59/40/45 61/42/47 60/41/46
f 54/35/41 60/41/46 62/43/48
f 54/35/41 62/43/48 53/34/40
f 60/41/46 61/42/47 63/44/49
f 60/41/46 63/44/49 62/43/48
f 61/42/47 64/45/50 63/44/49
f 53/34/40 62/43/48 65/46/51
f 53/34/40 65/46/51 66/47/52
f 66/47/52 65/46/51 67/48/53
f 65/46/51 68/49/54 67/48/53
f 62/43/48 63/44/49 69/50/55
f 62/43/48 69/50/55 65/46/51
f 63/44/49 64/45/50 70/51/56
f 63/44/49 70/51/56 69/50/55
f 64/45/50 71/52/57 70/51/56
f 65/46/51 69/50/55 72/53/58
f 68/49/54 65/46/51 72/53/58
f 73/54/59 69/50/55 70/51/56
f 69/50/55 73/54/59 72/53/58
f 72/53/58 74/55/60 68/49/54
f 74/55/60 72/53/58 73/54/59
f 68/49/54 74/55/60 75/56/61
f 70/51/56 76/57/62 73/54/59
f 70/51/56 71/52/57 76/57/62
f 73/54/59 77/58/63 74/55/60
f 77/58/63 73/54/59 76/57/62
f 74/55/60 78/59/64 75/56/61
f 78/59/64 74/55/60 77/58/63
f 75/56/61 78/59/64 79/60/65
f 78/59/64 80/61/66 79/60/65
f 80/61/66 78/59/64 81/62/67
f 77/58/63 81/62/67 78/59/64
f 80/61/66 81/62/67 82/63/68
f 81/62/67 77/58/63 83/64/69
f 81/62/67 83/64/69 84/65/70
f 76/57/62 83/64/69 77/58/63
f 83/64/69 76/57/62 85/66/71
f 83/64/69 85/66/71 86/67/72
f 71/52/57 85/66/71 76/57/62
f 85/66/71 71/52/57 87/68/73
f 85/66/71 87/68/73 88/69/74
f 89/19/75 90/18/76 91/20/77
f 90/18/76 89/19/75 92/21/78
f 93/22/79 92/21/78 89/19/75
f 92/21/78 93/22/79 94/23/80
f 95/24/81 94/23/80 93/22/79
f 94/23/80 95/24/81 96/25/82
f 95/24/81 97/26/83 96/25/82
f 95/24/81 98/27/84 97/26/83
f 99/29/85 100/28/34 101/30/36
f 100/28/34 99/29/85 102/31/86
f 103/32/87 102/31/86 99/29/85
f 102/31/86 103/32/87 104/33/88
f 105/34/89 104/33/88 103/32/87
f 104/33/88 105/34/89 106/35/90
f 106/35/90 107/36/91 104/33/88
f 108/37/92 107/36/91 106/35/90
f 108/37/92 109/38/34 107/36/91
f 109/38/34 108/37/92 110/39/44
f 111/40/45 110/39/44 108/37/92
f 108/37/92 112/41/93 111/40/45
f 106/35/90 112/41/93 108/37/92
f 113/42/47 111/40/45 112/41/93
f 112/41/93 106/35/90 114/43/94
f 106/35/90 105/34/89 114/43/94
f 112/41/93 115/44/95 113/42/47
f 115/44/95 112/41/93 114/43/94
f 116/45/50 113/42/47 115/44/95
f 105/34/89 117/46/96 114/43/94
f 118/47/52 117/46/96 105/34/89
f 118/47/52 119/48/53 117/46/96
f 120/49/97 117/46/96 119/48/53
f 114/43/94 121/50/98 115/44/95
f 121/50/98 114/43/94 117/46/96
f 115/44/95 122/51/99 116/45/50
f 122/51/99 115/44/95 121/50/98
f 116/45/50 122/51/99 123/52/57
f 117/46/96 124/53/100 121/50/98
f 117/46/96 120/49/97 124/53/100
f 121/50/98 125/54/101 122/51/99
f 125/54/101 121/50/98 124/53/100
f 126/55/102 124/53/100 120/49/97
f 124/53/100 126/55/102 125/54/101
f 120/49/97 127/56/61 126/55/102
f 125/54/101 128/57/103 122/51/99
f 122/51/99 128/57/103 123/52/57
f 126/55/102 129/58/104 125/54/101
f 125/54/101 129/58/104 128/57/103
f 130/59/105 126/55/102 127/56/61
f 126/55/102 130/59/105 129/58/104
f 127/56/61 131/60/106 130/59/105
f 132/61/107 130/59/105 131/60/106
f 130/59/105 132/61/107 133/62/108
f 133/62/108 129/58/104 130/59/105
f 132/61/107 134/63/72 133/62/108
f 129/58/104 133/62/108 135/64/109
f 133/62/108 136/65/70 135/64/109
f 135/64/109 128/57/103 129/58/104
f 128/57/103 135/64/109 137/66/110
f 135/64/109 138/67/72 137/66/110
f 137/66/110 123/52/57 128/57/103
f 123/52/57 137/66/110 139/68/73
f 137/66/110 140/69/70 139/68/73
f 141/70/111 142/71/112 143/72/113
f 142/71/112 141/70/111 144/73/114
f 145/74/115 144/73/114 141/70/111
f 144/73/114 145/74/115 146/75/115
f 147/15/116 148/16/117 149/17/117
f 148/16/117 147/15/116 150/14/118
f 150/14/118 147/15/116 151/13/119
f 152/12/120 150/14/118 151/13/119
f 153/71/121 154/70/122 155/72/123
f 154/70/122 153/71/121 156/73/124
f 156/73/124 157/74/125 154/70/122
f 157/74/125 156/73/124 158/75/125
f 159/76/126 160/77/127 161/78/128
f 160/77/127 159/76/126 162/79/129
f 162/79/129 163/80/130 160/77/127
f 163/80/130 162/79/129 164/81/131
f 164/81/131 165/82/132 163/80/130
f 165/82/132 164/81/131 166/83/133
f 166/83/133 167/84/134 165/82/132
f 167/84/134 166/83/133 168/85/135
f 167/84/134 168/85/135 169/86/136
f 169/86/136 170/87/137 167/84/134
f 170/87/137 169/86/136 171/88/138
f 170/87/137 171/88/138 172/89/139
f 172/89/139 171/88/138 173/90/140
f 172/89/139 173/90/140 174/91/141
f 173/90/140 175/92/128 174/91/141
f 175/92/128 173/90/140 176/93/142
f 177/77/143 178/76/144 179/78/145
f 178/76/144 177/77/143 180/79/146
f 181/80/147 180/79/146 177/77/143
f 180/79/146 181/80/147 182/81/148
f 183/82/149 182/81/148 181/80/147
f 182/81/148 183/82/149 184/83/150
f 185/84/151 184/83/150 183/82/149
f 184/83/150 185/84/151 186/85/152
f 186/85/152 185/84/151 187/86/153
f 187/86/153 185/84/151 188/87/154
f 187/86/153 188/87/154 189/88/155
f 190/89/156 189/88/155 188/87/154
f 189/88/155 190/89/156 191/90/157
f 192/91/158 191/90/157 190/89/156
f 193/92/145 191/90/157 192/91/158
f 191/90/157 193/92/145 194/93/159
f 195/94/160 196/95/161 197/96/160
f 196/95/161 195/94/160 198/97/162
f 198/97/162 199/98/163 196/95/161
f 199/98/163 198/97/162 200/99/164
f 200/99/164 201/100/165 199/98/163
f 201/100/165 200/99/164 202/101/166
f 203/102/167 204/103/168 205/104/169
f 206/105/170 204/103/168 203/102/167
f 207/106/171 204/103/168 206/105/170
f 204/103/168 207/106/171 208/107/172
f 208/107/172 207/106/171 209/108/173
f 210/109/174 209/108/173 207/106/171
f 209/108/173 210/109/174 211/110/175
f 211/110/175 212/111/36 209/108/173
f 213/102/176 214/104/177 215/103/178
f 213/102/176 215/103/178 216/105/179
f 215/103/178 217/106/180 216/105/179
f 217/106/180 215/103/178 218/107/181
f 217/106/180 218/107/181 219/108/182
f 217/106/180 219/108/182 220/109/183
f 219/108/182 221/110/175 220/109/183
f 222/111/36 221/110/175 219/108/182
f 223/112/184 224/113/185 225/114/186
f 224/113/185 223/112/184 226/115/187
f 226/115/187 227/116/188 224/113/185
f 228/117/189 226/115/187 223/112/184
f 227/116/188 226/115/187 229/118/190
f 229/118/190 230/119/191 227/116/188
f 226/115/187 228/117/189 231/120/192
f 231/120/192 229/118/190 226/115/187
f 230/119/191 229/118/190 232/121/193
f 232/121/193 233/122/194 230/119/191
f 233/122/194 232/121/193 234/123/195
f 229/118/190 235/124/196 232/121/193
f 235/124/196 236/125/197 232/121/193
f 229/118/190 231/120/192 237/126/198
f 235/124/196 229/118/190 237/126/198
f 231/120/192 238/127/199 237/126/198
f 238/127/199 235/124/196 237/126/198
f 228/117/189 239/128/200 231/120/192
f 238/127/199 231/120/192 239/128/200
f 239/128/200 228/117/189 240/129/201
f 241/130/202 239/128/200 240/129/201
f 239/128/200 241/130/202 242/131/203
f 243/132/204 242/131/203 241/130/202
f 239/128/200 244/133/205 238/127/199
f 244/133/205 239/128/200 242/131/203
f 245/134/206 243/132/204 246/135/207
f 243/132/204 245/134/206 247/136/208
f 242/131/203 243/132/204 247/136/208
f 248/137/209 247/136/208 245/134/206
f 249/138/210 242/131/203 247/136/208
f 247/136/208 248/137/209 249/138/210
f 242/131/203 249/138/210 244/133/205
f 250/139/211 249/138/210 248/137/209
f 249/138/210 251/140/212 244/133/205
f 251/140/212 238/127/199 244/133/205
f 249/138/210 250/139/211 252/141/213
f 251/140/212 249/138/210 252/141/213
f 250/139/211 253/142/214 252/141/213
f 252/141/213 253/142/214 254/143/215
f 251/140/212 252/141/213 255/144/215
f 238/127/199 251/140/212 256/145/216
f 235/124/196 238/127/199 256/145/216
f 256/145/216 251/140/212 257/146/217
f 258/147/218 235/124/196 256/145/216
f 256/145/216 257/146/217 258/147/218
f 235/124/196 258/147/218 259/148/219
f 260/149/220 259/148/219 258/147/218
f 260/149/220 258/147/218 261/150/221
f 261/150/221 258/147/218 257/146/217
f 261/150/221 257/146/217 262/151/214
f 263/152/222 264/153/223 265/154/224
f 264/153/223 263/152/222 266/155/225
f 266/155/225 267/156/226 264/153/223
f 268/157/227 266/155/225 263/152/222
f 267/156/226 266/155/225 269/158/228
f 270/159/229 266/155/225 268/157/227
f 269/158/228 266/155/225 270/159/229
f 271/160/230 269/158/228 270/159/229
f 269/158/228 271/160/230 272/161/231
f 273/162/232 271/160/230 270/159/229
f 274/163/233 272/161/231 271/160/230
f 272/161/231 274/163/233 275/164/234
f 276/165/235 275/164/234 274/163/233
f 271/160/230 273/162/232 277/166/236
f 277/166/236 274/163/233 271/160/230
f 278/167/237 276/165/235 274/163/233
f 274/163/233 277/166/236 278/167/237
f 279/168/238 276/165/235 278/167/237
f 278/167/237 277/166/236 279/168/238
f 276/165/235 279/168/238 280/169/239
f 279/168/238 281/170/240 280/169/239
f 277/166/236 273/162/232 282/171/241
f 279/168/238 277/166/236 282/171/241
f 282/171/241 281/170/240 279/168/238
f 282/171/241 273/162/232 283/172/242
f 282/171/241 284/173/243 281/170/240
f 284/173/243 282/171/241 283/172/242
f 283/172/242 285/174/244 284/173/243
f 285/174/244 283/172/242 286/175/245
f 284/173/243 285/174/244 287/176/246
f 285/174/244 286/175/245 288/177/247
f 287/176/246 285/174/244 289/178/248
f 290/179/249 285/174/244 288/177/247
f 285/174/244 290/179/249 289/178/248
f 291/180/250 292/181/251 293/182/252
f 292/181/251 291/180/250 294/183/253
f 294/183/253 295/184/254 292/181/251
f 296/185/255 294/183/253 291/180/250
f 295/184/254 294/183/253 297/186/256
f 294/183/253 296/185/255 298/187/257
f 298/187/257 297/186/256 294/183/253
f 299/188/258 298/187/257 296/185/255
f 297/186/256 298/187/257 300/189/240
f 301/190/259 300/189/240 298/187/257
f 298/187/257 299/188/258 301/190/259
f 300/189/240 301/190/259 302/191/260
f 301/190/259 299/188/258 303/192/261
f 303/192/261 302/191/260 301/190/259
f 302/191/260 303/192/261 304/193/262
f 299/188/258 305/194/263 303/192/261
f 304/193/262 303/192/261 306/195/234
f 303/192/261 305/194/263 307/196/264
f 303/192/261 307/196/264 306/195/234
f 305/194/263 308/197/265 307/196/264
f 306/195/234 307/196/264 309/198/266
f 307/196/264 308/197/265 310/199/267
f 310/199/267 309/198/266 307/196/264
f 311/200/268 310/199/267 308/197/265
f 309/198/266 310/199/267 312/201/269
f 311/200/268 313/202/270 310/199/267
f 313/202/270 312/201/269 310/199/267
f 314/203/271 313/202/270 311/200/268
f 312/201/269 313/202/270 315/204/246
f 316/205/272 313/202/270 314/203/271
f 317/206/273 315/204/246 313/202/270
f 313/202/270 316/205/272 317/206/273
f 318/114/186 319/113/185 320/112/274
f 319/113/185 321/115/275 320/112/274
f 319/113/185 322/116/188 321/115/275
f 320/112/274 321/115/275 323/117/276
f 322/116/188 324/118/277 321/115/275
f 324/118/277 322/116/188 325/119/191
f 326/120/278 323/117/276 321/115/275
f 321/115/275 324/118/277 326/120/278
f 324/118/277 325/119/191 327/121/279
f 328/122/194 327/121/279 325/119/191
f 327/121/279 328/122/194 329/123/280
f 330/124/281 324/118/277 327/121/279
f 330/124/281 327/121/279 331/125/282
f 324/118/277 332/126/283 326/120/278
f 324/118/277 330/124/281 332/126/283
f 333/127/284 326/120/278 332/126/283
f 333/127/284 332/126/283 330/124/281
f 334/128/285 323/117/276 326/120/278
f 326/120/278 333/127/284 334/128/285
f 323/117/276 334/128/285 335/129/286
f 335/129/286 334/128/285 336/130/287
f 334/128/285 337/131/288 336/130/287
f 336/130/287 337/131/288 338/132/289
f 339/133/290 334/128/285 333/127/284
f 334/128/285 339/133/290 337/131/288
f 338/132/289 340/134/206 341/135/207
f 340/134/206 338/132/289 342/136/291
f 337/131/288 342/136/291 338/132/289
f 342/136/291 343/137/292 340/134/206
f 337/131/288 344/138/293 342/136/291
f 343/137/292 342/136/291 344/138/293
f 344/138/293 337/131/288 339/133/290
f 344/138/293 345/139/211 343/137/292
f 339/133/290 346/140/294 344/138/293
f 333/127/284 346/140/294 339/133/290
f 345/139/211 344/138/293 347/141/295
f 346/140/294 347/141/295 344/138/293
f 345/139/211 347/141/295 348/142/214
f 347/141/295 349/143/296 348/142/214
f 346/140/294 350/144/297 347/141/295
f 346/140/294 333/127/284 351/145/298
f 333/127/284 330/124/281 351/145/298
f 346/140/294 351/145/298 352/146/296
f 330/124/281 353/147/299 351/145/298
f 353/147/299 352/146/296 351/145/298
f 353/147/299 330/124/281 354/148/300
f 355/149/220 353/147/299 354/148/300
f 353/147/299 355/149/220 356/150/221
f 356/150/221 352/146/296 353/147/299
f 352/146/296 356/150/221 357/151/214
f 358/153/301 359/152/302 360/154/303
f 359/152/302 358/153/301 361/155/304
f 362/157/305 359/152/302 361/155/304
f 363/156/306 361/155/304 358/153/301
f 364/159/307 362/157/305 361/155/304
f 361/155/304 363/156/306 365/158/308
f 365/158/308 364/159/307 361/155/304
f 365/158/308 366/160/309 364/159/307
f 366/160/309 365/158/308 367/161/310
f 366/160/309 368/162/311 364/159/307
f 367/161/310 369/163/312 366/160/309
f 369/163/312 367/161/310 370/164/313
f 371/165/314 369/163/312 370/164/313
f 368/162/311 366/160/309 372/166/315
f 369/163/312 372/166/315 366/160/309
f 369/163/312 371/165/314 373/167/316
f 372/166/315 369/163/312 373/167/316
f 371/165/314 374/168/317 373/167/316
f 372/166/315 373/167/316 374/168/317
f 374/168/317 371/165/314 375/169/318
f 374/168/317 375/169/318 376/170/319
f 368/162/311 372/166/315 377/171/320
f 374/168/317 377/171/320 372/166/315
f 374/168/317 376/170/319 377/171/320
f 377/171/320 378/172/321 368/162/311
f 379/173/322 377/171/320 376/170/319
f 377/171/320 379/173/322 378/172/321
f 380/174/323 378/172/321 379/173/322
f 378/172/321 380/174/323 381/175/324
f 379/173/322 382/176/325 380/174/323
f 380/174/323 383/177/326 381/175/324
f 382/176/325 384/178/327 380/174/323
f 380/174/323 385/179/328 383/177/326
f 385/179/328 380/174/323 384/178/327
f 386/181/329 387/180/330 388/182/331
f 387/180/330 386/181/329 389/183/332
f 390/184/333 389/183/332 386/181/329
f 389/183/332 391/185/334 387/180/330
f 389/183/332 390/184/333 392/186/335
f 391/185/334 389/183/332 393/187/336
f 392/186/335 393/187/336 389/183/332
f 393/187/336 394/188/337 391/185/334
f 393/187/336 392/186/335 395/189/338
f 395/189/338 396/190/339 393/187/336
f 394/188/337 393/187/336 396/190/339
f 396/190/339 395/189/338 397/191/340
f 398/192/341 394/188/337 396/190/339
f 397/191/340 398/192/341 396/190/339
f 398/192/341 397/191/340 399/193/342
f 394/188/337 398/192/341 400/194/343
f 401/195/344 398/192/341 399/193/342
f 402/196/345 400/194/343 398/192/341
f 398/192/341 401/195/344 402/196/345
f 400/194/343 402/196/345 403/197/346
f 402/196/345 401/195/344 404/198/347
f 403/197/346 402/196/345 405/199/348
f 402/196/345 404/198/347 405/199/348
f 403/197/346 405/199/348 406/200/349
f 405/199/348 404/198/347 407/201/350
f 406/200/349 405/199/348 408/202/351
f 407/201/350 408/202/351 405/199/348
f 409/203/352 406/200/349 408/202/351
f 408/202/351 407/201/350 410/204/325
f 408/202/351 411/205/353 409/203/352
f 408/202/351 410/204/325 412/206/329
f 411/205/353 408/202/351 412/206/329
f 413/207/354 414/208/355 415/209/356
f 414/208/355 413/207/354 416/210/357
f 416/210/357 417/211/358 414/208/355
f 413/207/354 418/212/359 416/210/357
f 417/211/358 416/210/357 419/213/360
f 416/210/357 418/212/359 419/213/360
f 420/208/361 421/207/362 422/209/363
f 421/207/362 420/208/361 423/210/364
f 421/207/362 423/210/364 424/212/365
f 425/211/366 423/210/364 420/208/361
f 423/210/364 426/213/367 424/212/365
f 423/210/364 425/211/366 426/213/367
f 427/214/368 428/215/369 429/216/370
f 428/215/369 427/214/368 430/217/371
f 427/214/368 431/218/372 430/217/371
f 432/219/373 427/214/368 433/220/370
f 431/218/372 427/214/368 434/221/374
f 434/221/374 427/214/368 432/219/373
f 432/219/373 435/222/375 434/221/374
f 435/222/375 431/218/372 434/221/374
f 435/222/375 432/219/373 436/223/376
f 431/218/372 435/222/375 437/224/377
f 437/224/377 438/225/378 431/218/372
f 435/222/375 439/226/50 437/224/377
f 439/226/50 438/225/378 437/224/377
f 439/226/50 435/222/375 440/227/379
f 438/225/378 439/226/50 441/228/380
f 442/215/381 443/214/382 444/216/370
f 443/214/382 442/215/381 445/217/383
f 443/214/382 445/217/383 446/218/384
f 447/219/373 448/220/370 443/214/382
f 446/218/384 449/221/385 443/214/382
f 449/221/385 447/219/373 443/214/382
f 450/222/386 447/219/373 449/221/385
f 450/222/386 449/221/385 446/218/384
f 447/219/373 450/222/386 451/223/376
f 446/218/384 452/224/387 450/222/386
f 452/224/387 446/218/384 453/225/388
f 454/226/50 450/222/386 452/224/387
f 454/226/50 452/224/387 453/225/388
f 450/222/386 454/226/50 455/227/389
f 454/226/50 453/225/388 456/228/380
f 457/229/249 458/230/390 459/231/222
f 460/232/391 459/231/222 458/230/390
f 460/232/391 461/233/392 459/231/222
f 462/234/393 458/230/390 463/235/394
f 458/230/390 462/234/393 460/232/391
f 462/234/393 464/236/395 460/232/391
f 461/233/392 460/232/391 464/236/395
f 464/236/395 462/234/393 465/237/396
f 461/233/392 464/236/395 466/238/397
f 465/237/396 466/238/397 464/236/395
f 466/238/397 467/239/398 461/233/392
f 466/238/397 465/237/396 468/240/399
f 467/239/398 466/238/397 469/241/400
f 466/238/397 468/240/399 470/242/401
f 470/242/401 469/241/400 466/238/397
f 471/243/402 470/242/401 468/240/399
f 472/244/403 470/242/401 471/243/402
f 473/245/404 469/241/400 470/242/401
f 470/242/401 472/244/403 473/245/404
f 469/241/400 473/245/404 474/246/405
f 473/245/404 475/247/245 474/246/405
f 472/244/403 476/248/406 473/245/404
f 475/247/245 473/245/404 476/248/406
f 476/248/406 472/244/403 477/249/407
f 476/248/406 478/250/247 475/247/245
f 479/251/408 476/248/406 477/249/407
f 478/250/247 480/252/409 481/253/249
f 476/248/406 479/251/408 482/254/410
f 478/250/247 476/248/406 482/254/410
f 480/252/409 478/250/247 482/254/410
f 483/255/394 482/254/410 479/251/408
f 482/254/410 483/255/394 480/252/409
f 484/256/411 485/257/412 486/258/413
f 485/257/412 484/256/411 487/259/414
f 487/259/414 488/260/415 485/257/412
f 484/256/411 489/261/416 487/259/414
f 490/262/417 489/261/416 484/256/411
f 490/262/417 491/263/418 489/261/416
f 488/260/415 487/259/414 492/264/419
f 489/261/416 492/264/419 487/259/414
f 492/264/419 493/265/420 488/260/415
f 491/263/418 494/266/421 489/261/416
f 492/264/419 489/261/416 494/266/421
f 494/266/421 491/263/418 495/267/422
f 493/265/420 492/264/419 496/268/423
f 494/266/421 496/268/423 492/264/419
f 496/268/423 497/269/424 493/265/420
f 497/269/424 496/268/423 498/270/425
f 496/268/423 499/271/426 498/270/425
f 496/268/423 494/266/421 500/272/427
f 500/272/427 499/271/426 496/268/423
f 494/266/421 501/273/422 500/272/427
f 500/272/427 502/274/428 499/271/426
f 502/274/428 500/272/427 501/273/422
f 503/275/411 504/276/429 505/277/430
f 505/277/430 506/278/431 503/275/411
f 506/278/431 505/277/430 507/279/432
f 508/280/433 503/275/411 506/278/431
f 503/275/411 508/280/433 509/281/417
f 509/281/417 508/280/433 510/282/418
f 508/280/433 511/283/434 510/282/418
f 512/284/435 511/283/434 508/280/433
f 506/278/431 507/279/432 513/285/436
f 513/285/436 508/280/433 506/278/431
f 508/280/433 513/285/436 512/284/435
f 513/285/436 507/279/432 514/286/437
f 513/285/436 514/286/437 515/287/438
f 515/287/438 512/284/435 513/285/436
f 515/287/438 514/286/437 516/288/439
f 516/288/439 517/289/440 515/287/438
f 518/290/441 515/287/438 517/289/440
f 512/284/435 515/287/438 519/291/442
f 515/287/438 518/290/441 519/291/442
f 520/292/443 512/284/435 519/291/442
f 518/290/441 521/293/428 519/291/442
f 519/291/442 521/293/428 520/292/443
f 522/231/302 523/230/444 524/229/445
f 522/231/302 525/232/446 523/230/444
f 526/233/447 525/232/446 522/231/302
f 523/230/444 527/234/448 528/235/394
f 527/234/448 523/230/444 525/232/446
f 529/236/449 527/234/448 525/232/446
f 525/232/446 526/233/447 529/236/449
f 527/234/448 529/236/449 530/237/450
f 529/236/449 526/233/447 531/238/451
f 531/238/451 530/237/450 529/236/449
f 531/238/451 526/233/447 532/239/452
f 530/237/450 531/238/451 533/240/453
f 534/241/454 531/238/451 532/239/452
f 535/242/455 533/240/453 531/238/451
f 531/238/451 534/241/454 535/242/455
f 533/240/453 535/242/455 536/243/456
f 535/242/455 537/244/457 536/243/456
f 534/241/454 538/245/458 535/242/455
f 537/244/457 535/242/455 538/245/458
f 538/245/458 534/241/454 539/246/459
f 540/247/324 538/245/458 539/246/459
f 541/248/460 537/244/457 538/245/458
f 538/245/458 540/247/324 541/248/460
f 537/244/457 541/248/460 542/249/461
f 543/250/326 541/248/460 540/247/324
f 542/249/461 541/248/460 544/251/462
f 545/252/463 543/250/326 546/253/445
f 547/254/464 544/251/462 541/248/460
f 541/248/460 543/250/326 547/254/464
f 543/250/326 545/252/463 547/254/464
f 547/254/464 548/255/465 544/251/462
f 548/255/465 547/254/464 545/252/463
f 549/257/466 550/256/467 551/258/468
f 550/256/467 549/257/466 552/259/469
f 553/260/470 552/259/469 549/257/466
f 550/256/467 552/259/469 554/261/471
f 555/262/472 550/256/467 554/261/471
f 555/262/472 554/261/471 556/263/473
f 552/259/469 553/260/470 557/264/474
f 557/264/474 554/261/471 552/259/469
f 558/265/475 557/264/474 553/260/470
f 559/266/476 556/263/473 554/261/471
f 554/261/471 557/264/474 559/266/476
f 556/263/473 559/266/476 560/267/477
f 557/264/474 558/265/475 561/268/478
f 561/268/478 559/266/476 557/264/474
f 562/269/479 561/268/478 558/265/475
f 561/268/478 562/269/479 563/270/480
f 561/268/478 563/270/480 564/271/481
f 559/266/476 561/268/478 565/272/482
f 565/272/482 561/268/478 564/271/481
f 559/266/476 565/272/482 566/273/477
f 565/272/482 564/271/481 567/274/483
f 566/273/477 565/272/482 567/274/483
f 568/276/484 569/275/485 570/277/486
f 571/278/487 570/277/486 569/275/485
f 570/277/486 571/278/487 572/279/488
f 569/275/485 573/280/489 571/278/487
f 573/280/489 569/275/485 574/281/472
f 574/281/472 575/282/490 573/280/489
f 576/283/491 573/280/489 575/282/490
f 577/284/492 573/280/489 576/283/491
f 578/285/493 572/279/488 571/278/487
f 578/285/493 571/278/487 573/280/489
f 577/284/492 578/285/493 573/280/489
f 572/279/488 578/285/493 579/286/494
f 580/287/495 579/286/494 578/285/493
f 580/287/495 578/285/493 577/284/492
f 579/286/494 580/287/495 581/288/496
f 582/289/497 581/288/496 580/287/495
f 580/287/495 583/290/498 582/289/497
f 584/291/499 580/287/495 577/284/492
f 583/290/498 580/287/495 584/291/499
f 585/292/500 584/291/499 577/284/492
f 583/290/498 584/291/499 586/293/483
f 584/291/499 585/292/500 586/293/483
f 587/294/501 588/295/502 589/296/356
f 588/295/502 587/294/501 590/297/503
f 590/297/503 591/298/504 588/295/502
f 591/298/504 590/297/503 592/299/505
f 587/294/501 593/300/506 590/297/503
f 593/300/506 592/299/505 590/297/503
f 593/300/506 587/294/501 594/301/3
f 593/300/506 595/302/55 592/299/505
f 596/303/10 593/300/506 594/301/3
f 597/304/507 595/302/55 593/300/506
f 593/300/506 596/303/10 597/304/507
f 597/304/507 598/305/508 595/302/55
f 599/306/9 597/304/507 596/303/10
f 600/307/509 598/305/508 597/304/507
f 597/304/507 599/306/9 600/307/509
f 600/307/509 601/308/510 598/305/508
f 602/309/7 600/307/509 599/306/9
f 600/307/509 603/310/511 601/308/510
f 600/307/509 602/309/7 604/311/512
f 603/310/511 600/307/509 604/311/512
f 605/296/356 606/295/513 607/294/14
f 606/295/513 608/297/514 607/294/14
f 606/295/513 609/298/515 608/297/514
f 609/298/515 610/299/516 608/297/514
f 611/300/517 607/294/14 608/297/514
f 611/300/517 608/297/514 610/299/516
f 607/294/14 611/300/517 612/301/365
f 611/300/517 610/299/516 613/302/98
f 612/301/365 611/300/517 614/303/16
f 615/304/518 611/300/517 613/302/98
f 611/300/517 615/304/518 614/303/16
f 615/304/518 613/302/98 616/305/519
f 614/303/16 615/304/518 617/306/520
f 615/304/518 616/305/519 618/307/521
f 618/307/521 617/306/520 615/304/518
f 616/305/519 619/308/522 618/307/521
f 617/306/520 618/307/521 620/309/523
f 621/310/511 618/307/521 619/308/522
f 620/309/523 618/307/521 622/311/512
f 618/307/521 621/310/511 622/311/512
f 623/312/524 624/313/525 625/314/526
f 624/313/525 623/312/524 626/315/527
f 626/315/527 627/316/528 624/313/525
f 626/315/527 623/312/524 628/317/529
f 629/318/530 628/317/529 623/312/524
f 630/319/531 628/317/529 629/318/530
f 627/316/528 626/315/527 631/320/532
f 628/317/529 630/319/531 632/321/533
f 633/322/221 632/321/533 630/319/531
f 632/321/533 633/322/221 634/323/525
f 635/324/534 626/315/527 628/317/529
f 631/320/532 626/315/527 635/324/534
f 636/325/535 628/317/529 632/321/533
f 634/323/525 636/325/535 632/321/533
f 635/324/534 628/317/529 636/325/535
f 636/325/535 634/323/525 637/326/528
f 638/327/536 636/325/535 637/326/528
f 635/324/534 639/328/537 631/320/532
f 631/320/532 639/328/537 627/316/528
f 640/329/538 627/316/528 639/328/537
f 639/328/537 641/330/539 640/329/538
f 636/325/535 642/331/540 635/324/534
f 639/328/537 635/324/534 642/331/540
f 636/325/535 638/327/536 643/332/541
f 642/331/540 636/325/535 643/332/541
f 638/327/536 644/333/542 643/332/541
f 644/333/542 642/331/540 643/332/541
f 644/333/542 638/327/536 645/334/539
f 646/335/543 644/333/542 645/334/539
f 644/333/542 646/335/543 647/336/544
f 648/337/545 644/333/542 647/336/544
f 649/338/546 642/331/540 644/333/542
f 644/333/542 648/337/545 649/338/546
f 649/338/546 639/328/537 642/331/540
f 650/339/547 649/338/546 648/337/545
f 641/330/539 650/339/547 651/340/548
f 652/341/549 639/328/537 649/338/546
f 641/330/539 639/328/537 652/341/549
f 649/338/546 650/339/547 652/341/549
f 652/341/549 650/339/547 641/330/539
f 653/342/550 654/343/428 655/344/422
f 653/342/550 655/344/422 656/345/418
f 653/342/550 657/346/551 654/343/428
f 653/342/550 656/345/418 657/346/551
f 658/342/552 659/344/477 660/343/483
f 658/342/552 661/345/473 659/344/477
f 658/342/552 660/343/483 662/346/553
f 658/342/552 662/346/553 661/345/473
f 663/347/554 664/348/555 665/349/556
f 663/347/554 665/349/556 666/350/557
f 663/347/554 667/351/558 664/348/555
f 663/347/554 666/350/557 667/351/558
f 668/347/559 669/349/560 670/348/561
f 668/347/559 671/350/562 669/349/560
f 668/347/559 670/348/561 672/351/563
f 668/347/559 672/351/563 671/350/562
f 673/352/564 674/353/565 675/354/566
f 673/352/564 676/355/567 674/353/565
f 673/352/564 675/354/566 677/356/568
f 673/352/564 677/356/568 676/355/567
f 678/357/569 679/358/570 680/359/571
f 681/360/572 678/357/569 682/361/571
f 679/358/570 678/357/569 683/362/573
f 678/357/569 681/360/572 684/363/574
f 685/364/575 679/358/570 683/362/573
f 679/358/570 685/364/575 686/365/576
f 685/364/575 687/366/106 686/365/576
f 687/366/106 685/364/575 688/367/577
f 683/362/573 688/367/577 685/364/575
f 678/357/569 689/368/578 683/362/573
f 689/368/578 688/367/577 683/362/573
f 689/368/578 678/357/569 684/363/574
f 688/367/577 690/369/579 691/370/65
f 681/360/572 692/371/580 684/363/574
f 692/371/580 681/360/572 693/372/581
f 692/371/580 689/368/578 684/363/574
f 690/369/579 688/367/577 694/373/582
f 688/367/577 689/368/578 694/373/582
f 690/369/579 694/373/582 695/374/583
f 689/368/578 695/374/583 694/373/582
f 690/369/579 695/374/583 696/375/584
f 689/368/578 692/371/580 697/376/585
f 695/374/583 689/368/578 697/376/585
f 692/371/580 698/377/586 697/376/585
f 698/377/586 695/374/583 697/376/585
f 698/377/586 692/371/580 699/378/581
f 695/374/583 698/377/586 700/379/584
f 701/357/587 702/359/571 703/358/570
f 704/360/588 705/361/571 701/357/587
f 703/358/570 706/362/589 701/357/587
f 707/363/590 704/360/588 701/357/587
f 706/362/589 703/358/570 708/364/591
f 703/358/570 709/365/592 708/364/591
f 708/364/591 709/365/592 710/366/106
f 710/366/106 711/367/593 708/364/591
f 706/362/589 708/364/591 711/367/593
f 712/368/594 701/357/587 706/362/589
f 712/368/594 706/362/589 711/367/593
f 701/357/587 712/368/594 707/363/590
f 713/369/595 711/367/593 714/370/65
f 715/371/596 704/360/588 707/363/590
f 704/360/588 715/371/596 716/372/597
f 715/371/596 707/363/590 712/368/594
f 711/367/593 713/369/595 717/373/598
f 712/368/594 711/367/593 717/373/598
f 713/369/595 718/374/599 717/373/598
f 718/374/599 712/368/594 717/373/598
f 718/374/599 713/369/595 719/375/584
f 712/368/594 720/376/600 715/371/596
f 712/368/594 718/374/599 720/376/600
f 721/377/601 715/371/596 720/376/600
f 721/377/601 720/376/600 718/374/599
f 715/371/596 721/377/601 722/378/581
f 721/377/601 718/374/599 723/379/584
f 724/380/602 725/381/403 726/382/402
f 725/381/403 724/380/602 727/383/603
f 724/380/602 726/382/402 728/384/604
f 724/380/602 729/385/605 727/383/603
f 724/380/602 728/384/604 730/386/606
f 729/385/605 724/380/602 731/387/607
f 732/388/608 724/380/602 730/386/606
f 724/380/602 732/388/608 731/387/607
f 733/381/457 734/380/609 735/382/456
f 734/380/609 733/381/457 736/383/461
f 734/380/609 737/384/610 735/382/456
f 738/385/611 734/380/609 736/383/461
f 737/384/610 734/380/609 739/386/612
f 734/380/609 738/385/611 740/387/465
f 741/388/613 739/386/612 734/380/609
f 734/380/609 740/387/465 741/388/613
usemtl argusFace1
f 742/389/614 743/390/615 744/391/616
f 745/392/617 744/391/616 743/390/615
f 743/390/615 742/389/614 746/393/618
f 743/390/615 747/394/619 745/392/617
f 748/395/620 743/390/615 746/393/618
f 746/393/618 749/396/621 748/395/620
f 750/397/622 748/395/620 749/396/621
f 747/394/619 743/390/615 751/398/623
f 747/394/619 751/398/623 752/399/624
f 750/397/622 752/399/624 751/398/623
f 743/390/615 748/395/620 753/400/576
f 748/395/620 750/397/622 753/400/576
f 743/390/615 753/400/576 751/398/623
f 751/398/623 753/400/576 750/397/622
