# exported by https://3dviewer.net
mtllib model.mtl
g wall
v -0.05000001937150955 1.6441079941920117e-7 -0.9999999999999865
v -0.05000001937150955 -1.6143054204498242e-7 0.9999999999999869
v -0.04999997839331627 2.4000002582880704 -0.9999996089903613
v -0.04999997839331627 2.399999932446729 1.000000391009612
v 0.04999997839331627 -1.629206707320918e-7 0.9999999999999867
v 0.05000001937150955 2.399999932446729 1.000000391009612
v -0.05000001937150955 -1.6143054204498242e-7 0.9999999999999869
v -0.04999997839331627 2.399999932446729 1.000000391009612
v 0.04999997839331627 1.629206707320918e-7 -0.9999999999999867
v -0.05000001937150955 1.6441079941920117e-7 -0.9999999999999865
v 0.05000001937150955 2.4000002582880704 -0.9999996089903613
v -0.04999997839331627 2.4000002582880704 -0.9999996089903613
v 0.05000001937150955 2.4000002582880704 -0.9999996089903613
v -0.04999997839331627 2.4000002582880704 -0.9999996089903613
v 0.05000001937150955 2.399999932446729 1.000000391009612
v -0.04999997839331627 2.399999932446729 1.000000391009612
v 0.05000001937150955 2.4000002582880704 -0.9999996089903613
v 0.05000001937150955 2.399999932446729 1.000000391009612
v 0.04999997839331627 1.629206707320918e-7 -0.9999999999999867
v 0.04999997839331627 -1.629206707320918e-7 0.9999999999999867
vn -1 1.525878801089655e-8 2.4859719772941e-15
vn -1 1.525878801089655e-8 2.4859719772941e-15
vn -1 1.525878801089655e-8 2.4859719772941e-15
vn -1 1.525878801089655e-8 2.4859719772941e-15
vn 0 -1.6292067073209182e-7 0.9999999999999868
vn 0 -1.6292067073209182e-7 0.9999999999999868
vn 0 -1.6292067073209182e-7 0.9999999999999868
vn 0 -1.6292067073209182e-7 0.9999999999999868
vn 0 1.6292067073209182e-7 -0.9999999999999868
vn 0 1.6292067073209182e-7 -0.9999999999999868
vn 0 1.6292067073209182e-7 -0.9999999999999868
vn 0 1.6292067073209182e-7 -0.9999999999999868
vn 0 0.9999999999999868 1.6292067073209182e-7
vn 0 0.9999999999999868 1.6292067073209182e-7
vn 0 0.9999999999999868 1.6292067073209182e-7
vn 0 0.9999999999999868 1.6292067073209182e-7
vn 1 -1.525878801089655e-8 -2.4859719772941e-15
vn 1 -1.525878801089655e-8 -2.4859719772941e-15
vn 1 -1.525878801089655e-8 -2.4859719772941e-15
vn 1 -1.525878801089655e-8 -2.4859719772941e-15
vt 0.59375 -0.925000011920929
vt 0.59375 -0.925000011920929
vt 0.59375 -0.824999988079071
vt 0.59375 -0.824999988079071
vt 0.59375 -0.925000011920929
vt 0.59375 -0.824999988079071
vt 0.59375 -0.925000011920929
vt 0.59375 -0.824999988079071
vt 0.59375 -0.925000011920929
vt 0.59375 -0.925000011920929
vt 0.59375 -0.824999988079071
vt 0.59375 -0.824999988079071
vt 0.46875 -0.824999988079071
vt 0.46875 -0.824999988079071
vt 0.46875 -0.824999988079071
vt 0.46875 -0.824999988079071
vt 0.34375 -0.824999988079071
vt 0.34375 -0.824999988079071
vt 0.34375 -0.925000011920929
vt 0.34375 -0.925000011920929
usemtl colormap
f 1/1/1 2/2/2 3/3/3
f 4/4/4 3/3/3 2/2/2
f 5/5/5 6/6/6 7/7/7
f 8/8/8 7/7/7 6/6/6
f 9/9/9 10/10/10 11/11/11
f 12/12/12 11/11/11 10/10/10
f 13/13/13 14/14/14 15/15/15
f 16/16/16 15/15/15 14/14/14
f 17/17/17 18/18/18 19/19/19
f 20/20/20 19/19/19 18/18/18
